/* XPM */
static char *_55849415b184c4ffac07ae7bbbb2d82Kur1b8K1uhfvVnRy[] = {
/* columns rows colors chars-per-pixel */
"64 64 130 2 ",
"   c #75767A",
".  c #777A7F",
"X  c #7A7B7D",
"o  c #7D7E81",
"O  c #7F8083",
"+  c #828385",
"@  c #858689",
"#  c #87888B",
"$  c #898A8D",
"%  c #8D8E92",
"&  c #8F9093",
"*  c #929396",
"=  c #959699",
"-  c #97989B",
";  c #9A9B9E",
":  c #9C9DA2",
">  c #9EA0A4",
",  c #A1A2A5",
"<  c #A6A8A7",
"1  c #A4A5AA",
"2  c #A7A8AB",
"3  c #AAABAD",
"4  c #ADAEB2",
"5  c #AFB0B3",
"6  c #B2B3B6",
"7  c #B7B9B6",
"8  c #B8BAB7",
"9  c #B5B6B9",
"0  c #B7B8BC",
"q  c #BABBBD",
"w  c #BEC0BF",
"e  c #BDBEC1",
"r  c #BFC0C3",
"t  c #C2C3C5",
"y  c #C8C6C7",
"u  c #C6C8C7",
"i  c #C8CAC7",
"p  c #C5C6C9",
"a  c #C7C8CB",
"s  c #CACBCD",
"d  c #CED0CF",
"f  c #CDCED1",
"g  c #CFD0D2",
"h  c #D2D3D5",
"j  c #D5D6D9",
"k  c #D7D8DB",
"l  c #DADBDD",
"z  c #DEE0DD",
"x  c #DDDEE1",
"c  c #E1DFE0",
"v  c #DFE0E4",
"b  c #DFE0E3",
"n  c #E0E1E3",
"m  c #E0E1E5",
"M  c #E1E2E4",
"N  c #E2E3E5",
"B  c #E1E2E6",
"V  c #E2E3E7",
"C  c #E3E4E6",
"Z  c #E4E5E7",
"A  c #E2E3E5",
"S  c #E6E8E7",
"D  c #E6E8E7",
"F  c #E3E4E8",
"G  c #E5E6E8",
"H  c #E6E7E9",
"J  c #E5E6EA",
"K  c #E5E6E9",
"L  c #E7E8EA",
"P  c #E7E8EC",
"I  c #E7E8EB",
"U  c #E8E9EB",
"Y  c #E8E9ED",
"T  c #E9EAEC",
"R  c #EAEBED",
"E  c #E9EAEE",
"W  c #EAEBEF",
"Q  c #EBECEE",
"!  c #ECEDEF",
"~  c #EAEBED",
"^  c #F0F2EF",
"/  c #E6EBF1",
"(  c #EDEEF0",
")  c #EEEFF1",
"_  c #EDEEF2",
"`  c #EFEFF7",
"'  c #EDEEF1",
"]  c #EFF1F0",
"[  c #EFF0F2",
"{  c #EFF0F4",
"}  c #EFF0F2",
"|  c #F0F2F1",
" . c #F0F1F3",
".. c #F1F2F4",
"X. c #F2F3F5",
"o. c #F1F2F6",
"O. c #F2F3F7",
"+. c #F3F5F4",
"@. c #F3F4F6",
"#. c #F4F5F7",
"$. c #F2F3F5",
"%. c #F7F9F6",
"&. c #F6F8F7",
"*. c #F6F8F7",
"=. c #F8FAF7",
"-. c #F3F4F8",
";. c #F4F5F9",
":. c #F5F6F8",
">. c #F6F7F9",
",. c #F4F5FA",
"<. c #F5F6FA",
"1. c #F5F6F9",
"2. c #F7F8FA",
"3. c #F7F8FC",
"4. c #F7F8FB",
"5. c #F8F9FB",
"6. c #FAFCF9",
"7. c #F8F9FD",
"8. c #F9FAFC",
"9. c #FAFBFD",
"0. c #F9FAFE",
"q. c #FAFBFF",
"w. c #FBFDFC",
"e. c #FBFCFE",
"r. c #FBFCFF",
"t. c #FDFFFC",
"y. c #FCFDFF",
"u. c #FDFEFF",
"i. c #FEFFFF",
"p. c #FDFEFE",
/* pixels */
"f 5.H @ 6 * j #.s t e.H $ 0 # h 5.j i H >.% e = 5 t.x 6 O.>.* 4 2 = 2.X.9 l t.5 - 0 & ,.` t j e.g + q $ X.e.t s >.j * 6 @ H 5.s ",
"X.r t.t & e e.h U t.r t.g & 6 Z x F e.a 7.x * 4 O.f x t.s c t.- = t.M s t.x g X.2 % x ,.f e./ x F q & a >.t t.! h e.q & t t.t $.",
"H t.t t.#.t.q $.2.h t.e X.t.t.c x e.x e.f t.( t.Z j 7.g t.s Z q.q.Z a t.s q.k M t.,.e.a t.j 7.j l t.e.t.t t.y #.$.e t.$.t.t t.H ",
"+ t 2.f 5.g t.k O $ 5 t.a >.s ( ` o % 3 >.9 t.l l } * * @ t.s ! ! g t.@ * = ( c j e.0 O.4 % @ _ F j e.r e.q % X k t.f q.f 2.t + ",
"q * >.t.: x e.; 9 e - ! t.- M q.6 1 r : l t.3 a e.q ; t = s t.0 0 t.a ; t ; q w.r 4 t.x = a 4 4 t.l = t.$.% q r ; q.c ; t.,.* 0 ",
"# r t.q M j 2.f + & , t.x c s t.x + 1 & t.l s x H $.@ , * t.l x x k t.* , @ ..U x j x e.% 2 o j 2.f ( j t.2 -   f >.j Z e t.r # ",
"h t.a >.t.$.j } k d t.a Z t.t.r #.M 9 t.f V q.e.c l ( q #.l h t.t.g l #.q ! l l t.t.j j t.e M t.s t.e.c a q.s Z ..j $.t.2.a t.j ",
"e.h T l , g ! s t.} j >.x 1 q >.s $.t.l l 3.1 4 } l X.>.Z l #.3 5 $.l Z 2...l ..6 2 ` J j t.T f $.r , Z } l ! t.a ! g , l H g e.",
"h X.E # 6 + l t.g f ( ,.% 4 % f t.t s L t.: 2 : 0 e.x a j t.2 , : , t.g a c 7.e : 2 : e.H a t t.f $ 6 % #.! s d t.l @ 3 $ G ..d ",
"7 t.f % t * i %.a 4 t.V @ e : 6 ..H 4 #.H % 6 , 4 e.x 2 q.O.* 4 4 - 7.q.2 x t.3 : 6 $ E >.4 Z ..6 : e @ Z t.3 a e.a * q = s t.7 ",
"#.q t.2 - 1 t.j ` t.e t.t - & e.c P >.e t.f - : P F x 7.f e.f : = j t.a 7.x P / : = f e.r 3.P x e.& - t t.q t.` l t.2 = 2 t.r $.",
"t.t.t t.>.t.t R ` M t.t q.` e.s k 7.x e.t q.` >.( a e./ t.t ` 7.` 7.e t.( 7.f / ,.` 7.p t.x q.j f t.` q.t t.c ` ! t t.$.t.r q.e.",
"O a t.y 6.c U U - + r e.e t.c ` ` * : 3 t.e 2.( g t.* & : t.g O.` x t.: % % t.f } 7.e t.4 - = ` ( M t.e e.r + = P P x e.a t.a O ",
"t % t.t.& D t.1 5 e : P t.2 a O.4 : p @ H t.2 y 7.a 1 e 1 j P t t ` j , e , s 7.a 2 t.M + a : 4 ` a 2 t.E : e 6 2 t.M * e.t.& t ",
"@ q 5.s l h e.0 # : & e.x f h t.x o 4 - 7.l j d 7.j o 4 + ` ` k h ( ` o 4 @ j q.d j l 5.: 4   x t.h f l t.& : $ 9 t.f x a t.q + ",
"f Q l ^ w.e.a q.f 0 _ x x t.t.e ` j 4 ( l x $.e.s 7.x 4 T k H 2.>.P x H 4 V ` f t.#.l c ( 4 j ` r t.t.l x _ 0 f 2.s >.t.( c T s ",
"X./ x J 4 x 3.s t.9.j c O.4 x / e q.t.x x ` 0 a 2.k ..t.( k $.a s } j } t.( j e.a e ` c x t.t.t ( j 2 ` c l q.t.a >.x 9 / x _ ` ",
"j >._ O 4 + j 3.y l c t.= : o v y.f f k t.* : $ 0 w.s c s t.6 = & 0 t.a x g t.6 $ : * e.k f s t.x o 2 : q.j l s t.j o 4 o _ ` j ",
"t / k , e 1 p 7.s 3 t.V $ f : 2 { a 2 t.J : e 5 6 w.H - e.t.o t r + t.7.& ! t.6 4 e : P t.2 a ,.4 , t @ V t.4 t t.a 1 e , j ` a ",
"X.j t.- & & e.h ( q.e t.2 = = ,.{ C t.r q.e o : l T j 2.t t.k + # j t.a e.h Z l : o r t.e t.c ` ,.= = 3 t.e q.` f t.* & - t.l ` ",
"7.,.t t.E q.t / ,./ t.a e.c >.l a t.' q.t t.V O.! h t.$.e.0 q.( ( 2.6 t.5.t.h ! ` M t.t 7._ t.s x ,.x t.a q.` ,.( a e./ t.p ` O.",
"- j t.a 7.x F W 1 & a t.t e.G l t.* - t t.e t.( j X.2 * 2 t.q t.t.r t.2 * 3 $.g _ e.e t.t - & t.c V q.e t.f = : ( F x ,.p t.j ; ",
"3 - ,.7.2 x t.4 : 5 - W } 3 c 5.0 : e # M t.2 a t.t ; e * g t.9 6 t.h & q ; a t.i 3 t.M # e : 9 X.M 6 >.P * 4 , 2 e.k 2 3.,.: 4 ",
": 4 e.h f x e.9 : : : 9.G h e e.s % 5 % #.R d h :.G # 3 $ H t.a f e.Z % 4 + M 2.h s ! ,.% 4 % f t.e f M t.: , : 6 e.x f j t.2 - ",
"6 ` k ! t.( j $.6 2 ` V k e.` g ,.e 2 j } k } t.s ( s 2 j ! s t.t.g ( h , s ` s t.>.l ( k 3 t #.g _ t.j F ` 4 6 o.k } e.H l $.6 ",
"t.k c ! 6 ..c j t.t.x h e.e x 2.p e.t.T d e.a c $.h X.t.q.a t.j g t.a e.t.>.h } Z y q.j ! 5.t.a e.c e t.h j e.t.x l ! 8 $.l j t.",
"l l t.% ; # >.H x f j e.% 3 + x q.h H j 2.3 - o g X.l x t t.t # + t t.t c l ..s + * 2 e.l M s q.j o 2 % t.k j x H 2.# ; $ t.l k ",
"q e.a - t ; 0 t.a 4 t.x = p 1 3 t.c = t.( - q q : 2.M ; t.} * q e = ` t.= M e., 6 e ; T t.; Z q.4 2 a - x t.4 t e.r : e * f t.0 ",
"H h t.+ * ; $.l x q.e 7.4 % @ / / a $.s t.4 # + l t.a t.s e.r + @ r q.a 5.s t.k o $ 4 t.a >.s T _ @ & 4 3.e q.j c } = = # t.f ! ",
"2.M a t.g 2.j Z t./ t.t t.k t.x j t.t.U 9 t.k } $.r w.t.e.t t.T Z t.a t.t.t.r ` $.k t.0 T t.t.l x 3.j e.a t.` t.M h 5.h t.a M 2.",
"; t.x f t.k s $.5 % x ,.s 7.J x ! 3 $ l t.0 t.} j e.0 * t t.e $...q t.y = q e.g $.t.9 t.l @ 2 ( c T q.f O.x # 2 ..f l t.a Z t.= ",
"2 : t.T 4 Z t.2 : 0 & ,.` r j e.g % q $ H t.t a 2.g = 4 $ Z e.f g t.M @ 3 * j e.a a t.M + t = f q.j e ` ,.* e : 4 t.c 5 ! e.: 2 ",
"2 : e.! 6 c t.4 : 0 = ` ` r h 7.a * e $ ! t.q a 2.j = 2 # c e.g g t.M # 3 = j 2.a r t.H # e & h q.j e ` ` * e : 4 t.x 6 ..5.- 3 ",
"= t.M s t.x g } 2 $ x ,.f e./ c ( 9 # g t.9 t.2.d w.q = a t.r X.X.e t.t = q 5.g } t.q t.l # 3 H M ( e.a O.x # 3 ` g c t.a M t.= ",
"5.M a t.g 3.h M t.` e.p t.j e.x s t.t.( r t.h / } q e.e.e.a t.H H t.a e.t.e.q ..} l t.9 U t.t.j x e.j t.a t.O.e.x j 5.s t.s H #.",
"! s t.@ = = ..c k t.e ,.3 & @ / ^ a ..a t.4 # @ l t.s 5.a q.t # @ t q.a q.s t.l + @ 4 t.s $.a } / @ % 4 3.q q.j x ..= = @ t.h T ",
"0 t.f = e : r t.p 4 t.x * p 2 4 t.c * t.Q = t e , e.M = t.` - 8 q = ( t.= M q.: q q - ( t.= c t.4 1 p = x e.4 p t.q ; r = f t.q ",
"l l t.$ - # :.H c j k e.% 2 o x #.s D M t.3 ;   s $.l c t e.t + + t t.y c l $.g O - 3 :.k P g q.k O 3 % t.k j c ! ..@ ; & t.k x ",
"t.h l #.q ! l l t.t.j j t.e F t.h t.5.Z y 5.d M ( j >.t.e.a t.g g t.a e.t.#.j ! Z a e.g P e.t.t e.c e t.h x q.t.l l ! q $.l g t.",
"6 $.l U e.} k ` 6 2 ` V j t.( f q.9 3 M ^ k %.t.s X.s 1 g ( f t.t.f ! h 1 s ..s t.} j ..l 2 e 3.g ( t.j c ` 2 6 } l $.5.H l ,.4 ",
"; 2 t.g f x 7.9 : , : 7.V f q t.f $ 6 % ,.( s s e.Z + 5 $ M t.f f 2.Z $ 7 X Z 2.g f ( ,.% 6 % f t.t a H q.: 1 : 7 t.l s j t.3 : ",
"4 ; ,.3.2 x e.1 , 4 * P ,.6 M X.e : q + x t.3 h t.a : 0 $ h t.6 9 t.j # r ; a t.f 3 t.c $ e : 6 ..U 5 q./ % 6 , 3 t.l 3 2.$.; 3 ",
"= j e.a 7.x V P : = g t.r q.F c ,.% : s t.q t.H h $.3 & 3 t.r t.t.e t.1 * 3 #.h ` t.e t.t - * e.l Z X.e t.a * - T F l q.a t.h ; ",
"O.X.t t.P e.p _ ,.( e.a t.x 2.k h q./ ` e e.Z q.} g t.2.t.6 2.} } 7.6 t.e.t.g ` O.c t.t q.` t.f l t.F t.f t.X.q.! t e.P t.y #.:.",
"` x e.= % % t.f } 5.e t.4 - = ` M x t.a t.t o % l H j 5.a t.h @ # j t.s q.j H x - + r t.e t.c _ ( % = 1 t.0 ,.! h t.* * = t.k ..",
"t ( k , e , a q.a 3 t.H + r , 4 q.s 1 q.c : e e 5 e.! * 5.t.+ e r + t.e.$ } t.5 6 e : Y t.3 a ,.9 , s # H t.3 s e.i , q , k ! t ",
"h ` / O 4 + j e.s l j e.: 2 o x t.h f x q.& : o 6 t.h x a t.0 & & 8 t.a k j t.6 # : & t.x f g t.x   3 = &.l j s 2.j + 3 + ! $.j ",
",.( x P 6 x ,.a t.5.l x ` 3 l / t t.q.x x ` e f e.h } t...k ! s a } j ` e.$.g e.f e _ x x e.t.r ` x 4 _ l c #.t.a #.c 4 Z k ! ..",
"s E k } =.6.i q.s 0 / c x e.t.t ` j 4 / x x :.t.s ..Z 2 Z M H 5.,.Y x P 4 x 5.a t.+.x x ` 4 j ` e t.t.l c ` e f 3.f t.>.( x ( a ",
"@ e 5.s k h t.q % , = t.j s s t.x   2 : ,.j h s t.j # 3 X ! ! h h _ / + 4 + l w.h j l 7.- 4   x q.f f k t.& : @ q q.f x h >.q @ ",
"t * t.t.* D t.2 2 e = P t.4 f 5.6 , a % E t.4 s q.s , e , j ! t t P k 1 e , s 5.y 1 t.V + a : 5 X.a 2 t.P : e 4 2 q.c * t.t.# a ",
"o s t.a 5.M T U : + e t.e t.c T ( % = 1 e.0 $.P s t.$ * ; t.c } $.k e.: % % t.f ( 5.e e.2 : * X.( M t.e t.r + - H T M >.t t.s X ",
"q.5.t t.,.t.t U $.F t.t 7.( t.s c t.Z t.s e.` 7.T s 5.! t.e :.^ ,._ t t.U t.s / >.` q.a t.x q.k f e./ 3.r e.M ..H a t...e.a e.2.",
"#.q t.2 - 1 t.j P t.0 t.t : - e.l Z X.q t.s * : U U l 5.s t.j = - g t.s :.l P T : - f t.t 5.H x t.* : p e.e t.! l t., ; 3 t.q q.",
"7 t.h % e % s 5.h 6 e.F @ e = 4 $.U 5 7.( % 9 1 3 t.l 2 2.2.- 4 6 - ,.e.1 l e.1 : 6 % P 2.3 H } 6 : e @ Z e.3 s e.a $ t * f t.q ",
"d ^ ( # 6 + x t.i i E ` $ 9 % f t.t a F e.: , : e 5.Z s f t.1 : : 2 t.h a x t.e : 2 ; q.Z a t e.f % 4 % $.! d d q.c @ 3 + } $.f ",
"t.s ( j : j H s t.X.x ! x 1 a X.a O.t.j / O., 0 ..l $.2.Z l #.4 3 ,.x Z $.#.l ! 5 2 ` V k t._ h >.r 1 c } l ( t.s U k : l ( s e.",
"j e.f >.t.2.g $.c a 5.h U t.t.a q.x e t.s j e.7.x l ! 8 #.l h t.e.j l X.q ! c l t.e.k j e.e x ,.t t.t.H g e.s l #.h 2.t.#.s q.h ",
"$ q t.q Z k $.g o = : t.j H s t.x   3 * 9.j x x U $.@ , * t.k l c l t.% ; # >.T x f j e.% 4 + x q.f ! g e., ; X h >.k M q t.q # ",
"q * >.t.; c e.: q q * X.t.- x t.2 4 p % c t.1 s e.q ; t - s e.0 0 t.f = r ; q e.a 5 t.x * t 1 4 t.k * t.2.& 0 e ; t.M ; t...* q ",
"+ t 2.g 2.f t.k   * e e.r t.k c E % % , e.e ,.x l } * * @ t.f ! T f t.@ * = } l x e.e 7.4 % @ ( M j q.t t.e & X k t.s w.g 2.t + ",
"Z t.e t.>.t.r X.t.a t.r t.7.t.P x ,.x q.r t.7.t.Z j 5.d t.a H q.2.H s t.d e.j M e._ e.t t.k e.x Z t.e.e.e t.s t.$.r t.#.t.e t.H ",
"X.t e.t * 0 t.g T t.r t.g & 9 M F c q.h ( x & 1 $.g l t.s M t.; = t.Z a t.l h ..4 % x ,.s ,.H x c 8 * g e.t t.F g t.0 * t e.t X.",
"s t.M $ 6 % l ,.s a e.! + e @ g ,.x e ( 7.* 9 : 6 t.l 0 $.#.* 4 3 = #...9 l t.5 - e * ,.O.r j e.k @ q @ ( 2.t s ,.l % 6 $ M t.s "
};
