/* XPM */
static char *a81bec7c4b6c448bd51d9e55faa4ffb3whU1MJ0Rz2UFmyq5[] = {
/* columns rows colors chars-per-pixel */
"64 64 239 2 ",
"   c #030101",
".  c #090402",
"X  c #0C0C0B",
"o  c #0B0806",
"O  c #110E0C",
"+  c #170D08",
"@  c #16120D",
"#  c #141212",
"$  c #1A1514",
"%  c #1B1916",
"&  c #1D1B1B",
"*  c #191619",
"=  c #221A13",
"-  c #231D1D",
";  c #2A1E17",
":  c #261A0E",
">  c #2C241B",
",  c #28221B",
"<  c #33261B",
"1  c #35281D",
"2  c #3C2C1E",
"3  c #362618",
"4  c #211F20",
"5  c #252222",
"6  c #2A2827",
"7  c #352C23",
"8  c #3C2E21",
"9  c #332C2B",
"0  c #312525",
"q  c #3C3224",
"w  c #3D352A",
"e  c #3F392D",
"r  c #33312E",
"t  c #3C3534",
"y  c #363435",
"u  c #2F2F32",
"i  c #412F1E",
"p  c #44301F",
"a  c #4C361E",
"s  c #50381E",
"d  c #422F21",
"f  c #452C28",
"g  c #433223",
"h  c #4A3625",
"j  c #43362A",
"k  c #42392E",
"l  c #4B3A2B",
"z  c #4C3729",
"x  c #523D2C",
"c  c #503927",
"v  c #453C32",
"b  c #4A3E34",
"n  c #433A39",
"m  c #513E30",
"M  c #613D3D",
"N  c #55402D",
"B  c #59442C",
"V  c #454035",
"C  c #4D4235",
"Z  c #4D443A",
"A  c #44423E",
"S  c #524536",
"D  c #524639",
"F  c #53453B",
"G  c #554838",
"H  c #564A39",
"J  c #54493C",
"K  c #594A3C",
"L  c #574734",
"P  c #3C3F44",
"I  c #4C4442",
"U  c #484544",
"Y  c #554C47",
"T  c #5C5145",
"R  c #5A524F",
"E  c #5B5756",
"W  c #4C4F54",
"Q  c #664C46",
"!  c #65564A",
"~  c #655A55",
"^  c #645B5B",
"/  c #685E5F",
"(  c #755855",
")  c #6B615A",
"_  c #76665C",
"`  c #6C6A6B",
"'  c #6B6561",
"]  c #736A63",
"[  c #746D6C",
"{  c #786863",
"}  c #7A736A",
"|  c #766F70",
" . c #7D7473",
".. c #767577",
"X. c #826D57",
"o. c #80684E",
"O. c #946E6E",
"+. c #83766B",
"@. c #87786A",
"#. c #847C73",
"$. c #897976",
"%. c #977A7A",
"&. c #946D6E",
"*. c #AC787E",
"=. c #875A5D",
"-. c #8A837B",
";. c #868279",
":. c #96847C",
">. c #987F82",
",. c #BA7E8A",
"<. c #A87C81",
"1. c #C37E8C",
"2. c #C87F90",
"3. c #8A8887",
"4. c #968D83",
"5. c #948E8B",
"6. c #998783",
"7. c #9A938B",
"8. c #9D9593",
"9. c #9B9B9A",
"0. c #AA8789",
"q. c #B7858D",
"w. c #A3968D",
"e. c #A59C93",
"r. c #A69B96",
"t. c #BC8A92",
"y. c #ABA295",
"u. c #A9A39B",
"i. c #B3AA9D",
"p. c #B9AA9B",
"a. c #BEB29A",
"s. c #ABA6A4",
"d. c #BAADA3",
"f. c #B3ABA5",
"g. c #BDB4AA",
"h. c #BAB1A7",
"j. c #BAB5B2",
"k. c #B8B7B7",
"l. c #AEB1B6",
"z. c #C58592",
"x. c #C3AC97",
"c. c #C9B59D",
"v. c #C4B4A1",
"b. c #CDB5A3",
"n. c #CDBAA5",
"m. c #C3B9AC",
"M. c #CBBAAC",
"N. c #C7B7A7",
"B. c #D4BDA4",
"V. c #D2BCAB",
"C. c #D4B9AA",
"Z. c #C3BBB3",
"A. c #C3BDBB",
"S. c #C9BEB5",
"D. c #CEB6AC",
"F. c #D5C2AB",
"G. c #DBC5AC",
"H. c #DBC8AF",
"J. c #D9C1A7",
"K. c #C6C2BC",
"L. c #CCC5BB",
"P. c #CDC5B9",
"I. c #D5C3B3",
"U. c #DCC5B3",
"Y. c #DDCAB3",
"T. c #D4CABD",
"R. c #DDCDBC",
"E. c #D6C7B8",
"W. c #CFC0AD",
"Q. c #E1CDB5",
"!. c #E1CFBA",
"~. c #E2D1B7",
"^. c #E4D2BD",
"/. c #E8D4BC",
"(. c #BABDC2",
"). c #CBC6C2",
"_. c #CAC8C6",
"`. c #D4CDC3",
"'. c #DCCEC2",
"]. c #D4CECC",
"[. c #DACFC9",
"{. c #D4D0C6",
"}. c #DCD2C4",
"|. c #D5D2CB",
" X c #DBD5CB",
".X c #DDD9CD",
"XX c #CDCDD1",
"oX c #DBD5D3",
"OX c #DDDAD4",
"+X c #DDDCDB",
"@X c #D5D6D6",
"#X c #CFD1D0",
"$X c #E3D5C4",
"%X c #E8D7C3",
"&X c #E5D9C6",
"*X c #EAD9C5",
"=X c #E2D6C9",
"-X c #E5DACB",
";X c #EADDCC",
":X c #E3DDD3",
">X c #EADED2",
",X c #E2DEDA",
"<X c #E8DEDF",
"1X c #F0DFCD",
"2X c #EBE1CE",
"3X c #E6E1D6",
"4X c #ECE3D4",
"5X c #E5E2DC",
"6X c #EBE5DB",
"7X c #EDE9DD",
"8X c #EFE8D6",
"9X c #F1E5D4",
"0X c #F3E8D7",
"qX c #F1E7DA",
"wX c #F2EADC",
"eX c #F9EBDC",
"rX c #F0E1CE",
"tX c #DCDEE2",
"yX c #E1DFE1",
"uX c #DEE1E5",
"iX c #E4E4E3",
"pX c #EAE6E1",
"aX c #EEEAE2",
"sX c #E3E6E9",
"dX c #ECEBEB",
"fX c #E5E8ED",
"gX c #F2EDE3",
"hX c #F9EEE2",
"jX c #F4EEE9",
"kX c #F5F1E6",
"lX c #FBF3E5",
"zX c #F6F2EA",
"xX c #FAF5EB",
"cX c #FDF8EE",
"vX c #EAEDF1",
"bX c #F4F4F2",
"nX c #FBF6F2",
"mX c #FDFAF3",
"MX c #FCFCF9",
/* pixels */
"o.s B B B B m x S c l l x c h h d f d 2 2 3 8 b K K H K L H L H L H H H H H G G G G G S G S G L G G S D G D G D D F F F F F F F ",
"o.h B B x B x x l c x x c h h c h h 8 2 d 3 3 j K K H H L G H L H H H G H H H G G H G G G G G G C L D S D S S D F F F F F F F F ",
"X.p B x B x x m x x c c c x h p h d i i 8 1 3 1 S K G G H G G G H G G G G G G G D D D D Z G S G S S S S S C C S D G S S b F m F ",
"X.p L B x x x x x x x h h x z h h i 2 2 8 2 3 3 j H H S G S G S G G G S S S C S S S C D C C C C Z S C C C S b S C b b S b m b b ",
"X.g S x x x B c c x x B L l f j j i 2 2 2 8 1 < < C Y D S D G S C S S S V S V S D F D D F D C C C C S b S b b b b b b b b b F b ",
"_ j L x S x x x x c x 3 2 l l z h g g 2 2 1 2 1 > j Z F Z Z G V S S C N S S C C Z C D C C C C V V C b b b b b b b b b b b b b b ",
"{ , S b x L x m x c Q @._ 2 v g h j f 8 8 8 1 1 > 1 b F Z Z V S V C V V V V C C C b C b C b b b V b b b b b b b v b b b b b b n ",
"_ . C D l m m x B p p.;X'.5.! T j j q 8 8 7 < 7 1 ; e F Z Z V S V V V N V V N V b b b A C C b C b b b b b l v v v v v v v v n b ",
"] . 0 b b l m x x Q S.;XqX=Xw.+._ C q g q q 7 < > > > V V Z V V V V V V v V b b V v C Z 7 v I k v v v b k k V k k k v v e v e v ",
"' . $ = b S b K d @.V.'.>XqX[.r.e.;.) K e 1 q w q q > e V V V e V l v l v e l V b C J w #.g.L.$.7 b w j k e l k k k v v k j v e ",
"|   - . ; b v b K y.$X$X-X6X<XL.g.g.i.i.4.) Y 9 V = = , V e e V e V V Z V l l V q T ] e.=X:X3XK.F b v v k k e e k k k k k k w k ",
"`   $ O . 7 F k ~ '.>X[.[.:XqX`.`.{.`.{.{.m.y.#.-.} ) = = r e e e e w w e V T R ) w.i.3X6X.X`.L.} , v k w V e e j k t j w e j e ",
"|   &   X o w V r.4X-X X[.`..X:X.X3XOX,X6X6X,X[.3XT.k.e.} } e.} ;.;.;.} +.:.y.i.m.T..X>X>X`.L.OXu., e e r e e e e e w w e k w e ",
"..  &   o @ . Y `.6X.X`.[.:X.X5X6X6X6X6XpX6X4XaX3X7X3X3X{..X.X{.{..X{.T.T..X-X.X X-X7X,X.X`.{.:X'.Y w l e q e q q w q q w q q q ",
"`   *   X @   } ,X6X{.|..XOX6X3XaX7XpXaXaXpX6XpX3X5XaXkXaXkX3X7X5X6X8X3X8X8X4X-X-X>X.X>X`.L.{.3X2X] , e e q w e q q q q q q q q ",
"..  4   X O . s.pX X|..X.X:X6XgXaXzXjXjXjXgXgX7XkX7X7XkX7XkXkX7X7X7X6X7X7X7X8X6X>X:X-X X`.|. X5X4X;.@ V q e q q q q 8 q 7 q q 8 ",
"..  & X X   6 K.pX.X{..X3X5XaXkXkXdXzXcXxXkXaX7XkX7X7X7X7XkXkXkXaX7XaXaXgXwX7X7X7X3X:X|.P.K.{.3X4X4.+ j 8 q p q 8 2 2 8 8 p 8 q ",
"..  &   *   ) #X5XOX XOX7XaXkXzXcXzXzXxXxXkXaX7X7XkX7XkX7X7XkXaXkXaXkXkXkXgXwX7X7X3X.X.X{.W.K.|.3Xe.: j g q 2 p p p p g p 8 p 2 ",
"..  4   X   ;.OX3XOX3X6XaXkXzXxXzXzXcXzXkXkXkXkXkX7XkXkX7X7XaX7XaXaXaXkXkXkXkXgXwX7X8X3X.XP.)..X4Xg.q j g g p g p p p p p p p 8 ",
"..  4 * 6 W u.OXOX3X7XgXkXzXxXxXzXcXxXzXxXxXkXkX7X7X7XaXaX7XaXkXaXkXaXaXkXgXkXwXwXwX7X5X3X|.{..X3XW.V j j p q g p p p p p q p p ",
"` o ,   R s.{.3X<X4X7XgXhXxXxXxXzXxXcXcXxXxXlXkX7X7X7X7XaXkXkXkXkXdXkXaXkXaXkXkXkX7X7X7XaXOX`. X3Xi.l k k g q p g p p p p p p g ",
"..  . W u.|.5X7XpX6X7XgXjXxXnXxXxXbXcXcXxXxXlXkXkX7X7XkXkXkXaXaXzXkXkXaXkXaXkXkXkXaX7XaXgX5XOXOX.Xi.T e j j l p g p g g g 8 g p ",
"..  ..h.+X5XkXaXaX6XqXaXhXjXxXjXkXzXlXkXkXkXkXkXkXkXkXkXkXkXdXkXdXkXaXaXaXdXdXkXaXkXaX5X5X6X6X,X,Xm.] q < 8 g p g g g p p g p p ",
"3.8.{.3X7XkXaXaXaXqXqXaXgXjXjXjXaXkXaXkXaXkXkXkXkXzXzXcXzXkXkXzXkXaXpXpXpXaXaXkXaX7XaX7XpX5X<X4X3X-Xg.7.} K j q h g g p g p p p ",
"K.].,XaXkXkXkXkXkXgXaXgXpX6XaXqX7XaXzXkXaXkXxXkXkXxXcXcXxXkXkXzXdXaX5X+X5XiXaXaXdX7X5X6X7X5X4XpX7X8X8X.XP.i.;.) C g a h q p h g ",
"oX3XpXgXzXzXkXkXaXkXgXwXgXjXjXjXcXaXkX5XaX7XkXlXzXxXcXcXnXxXzXzXdXpX5X+X5X5XOXOXOX5X5X5X6X5X6XgX7X7X7X3X&XW.a.-.! C 2 V h 2 p h ",
"5XpXgXgXkXkXkXkXkXgXgXgXzXkXzXMXzXxX5X5X,XzXzXzXcXcXmXmXmXxXbXjXkXuXOXOX@XOXOXOXOX5X5X6X6X7XwXgXlX7X7X7X3X2XT.m.y.@.G h l h g g ",
"6XpXaXgXkXxXxXxXkXkXgXkXaX6XaXOXk.5.s.T.3XkXkXcXmXmXmXmXmXnXbXzXsXaX#X{.5XuXaXdX5XaX6X3X6XgXlXkXkXkX7X7X3X8X3X&XP.i.} L k g j j ",
"aXaXgXgXkXxXxXlXxXxXkXkXkXzXpXh.7   A 5.3XzXbXmXmXmXMXMXmXMXnXjXdXuX_.k.A.+X5XiX6XaXaXaXkXlXlXlX7XkXwX7X5X8X5X3X.XT.g.4._ G l k ",
"7XpXaXaXkXxXxXxXxXcXxXcXmXMXxXk.  V Y ' |.kXkXaXaXdXbXxXmXmXbXjXbX+Xs.U y 5.Z.#XpXkXcXcXcXlXlXwX7XwXwX7X7X3X5X3X6X.XR.m.y.+.T j ",
"6X6X6X7XaXkXxXlXxXkXkXcXcXnXzX5X3.  ) k.5XaXaXaX7XaXaXdXaXjXdXdXaXiX9.E %   7.iXmXmXcXcXlXlXlXlX8X6X7X7X7X7X7X3X3X:X.X`.W.i.:.{ ",
"aXaX7X7X7XkXkXxXkXkXlXkXcXMXnXMXaXK.#XaXdXaXdX7XiXaXiX5XiXpXpXpXiXiX@X;.  3.3XbXmXcXmXcXcXlXwX7X7X7X7X7X7X7X7X7X6X3X3X:X{.T.g.7.",
"7X7X7X7XaXkXkXlXkXkXkXxXcXmXMXmXzXjXpXgXjXjXjXaXyXyXpXpXpXpXpXyX7X7XuX_.L.aXbXmXmXcXxXxXxXkXhXwX8X7X7XwXgX7X6XgX4X6X<X:X.X.X`.m.",
"7X7X3X7X7X7XkXkXxXkXkXxXcXMXmXnXzX6XjXjXiXaX6X,X<X,X,XpX<XoXpXyXiXiX7X7XaXbXmXmXmXmXxXzXkXwX7X8X7X7X7X7XwX7X7XwX6X6X6X6X>X:X:X`.",
"7X5X3X7XaXkXaXkXkXzXcXmXmXMXnXnXjXjXjXpXjXoX:XA.S.Z.A.[.].).].oX5X5XuXiX5XdXMXMXmXmXcXkXlXkXwX7XwXwXwXwXwX6X8XwXjXwXgXqX6X3X:X'.",
"7X7X7X7X7XkXkXkXkXxXcXcXmXMXMXjXxXhXjXwX5X).7.[ ^ ^ [ #.5.r.u.A.@X3XiX5X5XiXmXMXMXMXnXkXgXlXhXwXwXwXwX0X0X8X7X7XqX6XqXwX6X:X=X X",
"7X3X5X7X7XaXkXkXkXcXmXcXnXMXnXjXjXjXjX<XS.] @ 9 k 9 ; $ 0 0 n | h.@XtXtXuXuXbXmXMXMXcXxXkXkXhX7X8X8X0X0X7X0X8X8X0X4XqXqX>X-X-X=X",
"7X7X7X7X7X7X7XgXxXcXmXmXnXnXnXxXxXxXhX)./ . t Y ^ ^ Q Y Y I n # ^ l.#X#X+X+XbXbXMXbXMXmXcXlXwX8X8X0X0X0XeXwX0X0XqX6X4X>X;X=X X.X",
"7X7X7X7X6X7XwXkXcXmXcXcXnXnXjXnXjXnX<Xr.. 9 4 n / | ` +.| I t r 6 3._.#XuXuXvXbXMXMXMXmXcXlXwX7X0X0XwXeXeX0X0XrX;X;X;X-X=X$X$X$X",
"7X3X7X5X4X5XgXlXcXcXcXcXnXjXjXjXnXjXoX] $ 0 = $ n R ^ / / I 0 & u W (.tXtXuXuXbXMXbXmXcXkXkX8X8XwXeXeX0X8X8X2X2X&X-X-X&X&X$X.X$X",
"7X3X3X3XOX.X8XkXnXnXnXxXjXjXzXnXjXjXA.U r 0 o   9 t y n 0 0 * * 6 P l.fXuXtXfXvXMXbXxXmXkX8X8X8XeX0X8X4X2X2X2X^.&X&X-X-X&X$X}.R.",
"7X7X3X7X7X3X7XcXxXxXxXxXxXjXjXjXnXpXj.A 6 6 4 o O 9 $ 9 4 .   * u W (.uXuXuXuXvXvXbXbXkX7X8X8X7XeX0X8X2X2X2X&X.X&X&X&X&X&X X$X}.",
"7X7X7X7X7X8XaXcXxXxXhXjXjXjXjXjXjX<XA.^ r O 5 , X - & 4 & X & 4 6 W l.uXfXsXsXfXdXbXzX5X2X4X0X0X8X8X2X2X^.2X&X^.&X&X&X&X$X.X&X&X",
"aX7X7X7X7X8X7XkXxXhXjXjXjXgXjXjXjXdX).$.A 6 * O $ - # * * * O 4 * W (.vXfXtXsXpXiXdXaX4X2X9X8X9X2X2X2X2X&X^.$X;X;X$X&X-X&X;X;X>X",
"kX7XwXwX7XwXkXlXxXhXhXgXgXgXjXpXpX<X].s.` r 6 # * * * * 4 X X 5 u 3.XXuXfXuXsXsX5XiX3X3X2X8X2XrX2X-X-X;X&X&X-X*X&X*X-X*X;X>X4X4X",
"wXwXkXkXlXlXlXxXxXhXqXgXgXgXhXgXgXyX].j.3.5 # & & * # * 5 & X P ..l.XXuXfXuXsXtXaX5X.X.X-X;X*X2X;X&X$X&X&X-X;X2X;X-X;X-X>X>X>X6X",
"kX7XwXgXgXlXlXlXlXhXqXhXpXhXjXgXpXyXoXA.9.` .   * & # 4 # # o ` l.(.tXfXfXtXuXsXsXOX{.}.&X&X/./.&X=X&X-X-X2X2X;X;X;X;X;X>X>X9X9X",
"hXwXwX9XwXlXlXlXlXqX<XqX<XgXjXhX<X<X].j.s.8.} U 5 # 4 # 5 * E 9.l.XXtXtXuXfXuXtX5X|.T.}.$X&X2X/.&X-X=X&X;X4X2X;X2X2X>X>X4X9XqX9X",
"kXhX8X8X4X7XkXlXcXeX<X>XhXgXpXqXyX,XoXA.u.5.| / n * # 9 E ;.9.s.).].yXfXsXtXiXiXOXK.P.}.&X^.^.%X-X$X-X;X2X.X&X&X2X2X2X9X9X8X9X8X",
"wXhXkXwXwXwXlXcXlXgX6X:X6XhXpX<X,X].).Z.0./ I n t 4 6 A E | 3.l.k.,XyXyXiXiXiXiX|.g.I.$X!.!.^./.$X$X$X-X2X2X2X2X&X2X2X2X8X9X8X8X",
"wXkXwXkXeXwXhXlXlXhX>X=X>XqXqXqX:X[.A.r...E R n 9 9 t A I R  .s.A.oXtX+XiXiX,X+XK.m.T.&XR.^./.^.'.'.$X-X2X.X2X2X2X2X8X8X8X8X8X0X",
"wX0X8X8X4X4X0XlXlXlX6X-X=X>X<X>X[.).s.w./ E I n Y R ^ R R ^  .r.K.XX+XpXiX,X,X Xf.L.$X/.^.&X%X$X$X}.=X&X.X2X2X2X2X2X8X9X0X0X8X8X",
"wX0X4X4X2X2X9XeXeXhXqX=X[.[.>X:X[.S.r.5._ / ' +.%.>.>.>.>.>.>.8.j.).oXyX,X,XOXZ.p.R.$X!.%X$X%X%X$X$X=X>X;X4X4X4X4X9X9X9X8X0XwX7X",
"0X8XrX9X9X4X9X0X1XeXeX;X'.'.'.'.E.S.f.w.>.>.>.%.<.<.q.0.0.5.8.s.j.).].,XOX.XL.i.S.^.R.$X%X^.*X$X=X=X=X>X3X2X2X4X9X4X9X9X7X0X0XwX",
"0X0XrX9X9X9X9X9X1X9XeXeX>X'.D.f.r.%.=.{ %.<.q.,.,.2.z.t.q.0.6.>.s.A.].[.`.g.d.M.$XR.R.%X%X$X*X$X=X=X>X>X3X2X4X4X9X9XqXqX7XwXwXhX",
"0X0XrXrXrXrXrX;X1X$X%X>X1X>XV.v.r.$.! f Q 0.q.,.2.2.2.t.t.5.{ F $.r.h.Z.h.e.p.R.R.!./.^.$X$X'.}.-X-X>X>X4X4X4X8X9X9XqX0X0XhXwXwX",
"9X;XrX*X*X*X*X*X$X*X%X'.*X1X$X'.'.v.%.) z ( *.,.,.1.q.q.<.&.+.4.u.u.i.i.e.y.I.I.Y.Q././.^.%X$X$X=X-X>X6X6XqXwX4X6X9XqXhXhXhXhXgX",
"1X%X%X%X%X/.~./.%X%X%X^.Q.^.%X1X}.=Xh.e.O.Q M =.&.*.*.O.O.w.h.S.g.d.d.d.a.N.E.H.Q.Q.~.Q.R.!.$X$X-X>X6X9X6XwXwXwXqXqXqXeXhXhXlXhX",
"/.!.^.!.!.Q.Q.Q.!.U.~.!.U.U.%X*X*X:X`.m.w.$.( Q ( &.<.0.d.M.P.m.d.p.N.N.W.P.F.F.H.Q.Q.Q.!.!.$X$X>X>X6X9X4X0XgXwXgXhXhXhXlXlXlXxX",
"^.Q.!.Y.U.Y.G.Q.Q.Q.Q.Q.Q.U.U.$X=X*X=XR.`.M.m.i.x.b.D.C.S.E.m.p.a.v.W.I.W.Y.Y.Y.G.H.Q.Q.^.^.$X$X$X>X9X6X6XwXwXgXhXhXhXhXlXxXlXlX",
"/.Q.Q.Q.Q.H.H.Q.G.Q.G.J.G.G.G.Q.Q.C.Q.C.U.n.n.V.D.V.E.V.W.B.b.b.W.F.W.W.Y.Y.~.~.Q.Q.Q.Q.!.!.$X$X$X>X9XqX6XwXwXeXlXlXlXlXlXlXlXlX",
"Q.U.Y.H.G.Q.Q.G.Q.G.G.G.C.J.J.C.C.c.C.b.b.b.D.c.D.D.D.D.W.n.C.G.F.H.F.F.Y.Y.^.~./.~.Q.Q.!.Q.!.$X*X>XqXqXwXwXgXgXlXlXlXlXlXlXlXlX",
"Q.G.H.G.G.Q.G.G.J.J.J.J.B.B.B.B.B.c.b.c.c.x.p.x.n.g.v.n.B.B.W.J.J.H.H.H.H.~.~.~.~.~.Q.!.Q.U.R.!.-X;X4X6XwXwXwXhXlXlXlXcXlXlXlXlX",
"Q.G.Q.G.G.G.J.J.J.G.B.B.B.B.B.C.B.c.B.c.c.x.a.a.a.a.c.n.n.W.F.J.H.H.Y.F.F.H.H.P.Q.Q.Q.Q.Q.Y.!.%X$X;X4X4X0XwXwXlXlXlXlXlXlXlXlXlX"
};
