/* XPM */
static char *bf8a9a946cc34677c770e9648263bdbbpmkDy7FiF1poJn4b[] = {
/* columns rows colors chars-per-pixel */
"64 64 84 1 ",
"  c #A6AEA1",
". c #A9B1A4",
"X c #AAB2A5",
"o c #ABB3A6",
"O c #ACB4A7",
"+ c #ADB5A8",
"@ c #AEB6A9",
"# c #AFB7AA",
"$ c #B0B8AB",
"% c #B1B9AC",
"& c #B2BAAD",
"* c #B3BBAE",
"= c #B4BCAF",
"- c #B5BDB0",
"; c #B6BEB1",
": c #B7BFB2",
"> c #B8C0B3",
", c #B9C1B4",
"< c #BAC2B5",
"1 c #BBC3B6",
"2 c #BCC4B7",
"3 c #BDC5B8",
"4 c #BEC6B9",
"5 c #BFC7BA",
"6 c #C0C8BB",
"7 c #C1C9BC",
"8 c #C2CABD",
"9 c #C3CBBE",
"0 c #C4CCBF",
"q c #C5CDC0",
"w c #C6CEC1",
"e c #C7CFC2",
"r c #C8D0C3",
"t c #C9D1C4",
"y c #CAD2C5",
"u c #CBD3C6",
"i c #CCD4C7",
"p c #CDD5C8",
"a c #CED6C9",
"s c #CFD7CA",
"d c #D0D8CB",
"f c #D1D9CC",
"g c #D2DACD",
"h c #D3DBCE",
"j c #D4DCCF",
"k c #D5DDD0",
"l c #D6DED1",
"z c #D7DFD2",
"x c #D8E0D3",
"c c #D9E1D4",
"v c #DAE2D5",
"b c #DBE3D6",
"n c #DCE4D7",
"m c #DDE5D8",
"M c #DEE6D9",
"N c #DFE7DA",
"B c #E0E8DB",
"V c #E1E9DC",
"C c #E2EADD",
"Z c #E3EBDE",
"A c #E4ECDF",
"S c #E5EDE0",
"D c #E6EEE1",
"F c #E7EFE2",
"G c #E8F0E3",
"H c #E9F1E4",
"J c #EAF2E5",
"K c #EBF3E6",
"L c #ECF4E7",
"P c #EDF5E8",
"I c #EEF6E9",
"U c #EFF7EA",
"Y c #F0F8EB",
"T c #F1F9EC",
"R c #F2FAED",
"E c #F3FBEE",
"W c #F4FCEF",
"Q c #F5FDF0",
"! c #F6FEF1",
"~ c #F7FFF2",
"^ c #F8FFF3",
"/ c #F9FFF4",
"( c #FAFFF5",
") c #FBFFF6",
/* pixels */
"1:R))~0*d)^i*8*a~)1$z~))A:4C)G1::1G)C4:C))YN#1))a:4#a)~f#yY))K2,",
":A)Cn)I6:j~Y8=r~)z*rIWNF)z:wK~b:=b~Lw:z)KnRRw:f^Ru:4R^s:8K)bC)C:",
"f)K41B)A1:B)Z8K)N.0K)b,wW)a*wU)aa)Iw*a)Rw,N^K0#N)K8N)C*1S)F,1R)j",
"))8*:1L)B22A)I)B,#K)S1*=r))w#f)~~)d#w))y=$8n)G==N)I)S2,C)F4=$w~)",
")i#db*1R~C*:~)R1:N)A4*biOz)I6:f))d>8I)z#yb1>G)C*:W)R:*n)I4#bf.d)",
"f$wR)f#rI)foanw#x)I8:s)I6#N)I8ONNO6I)n$8I)f$8I)zOaNi#f)R0:y)~2:a",
":8K~)Ra=s)Ru11*aW~y:aR^^S,:S)N4224N)S:,S)^Yf:yR~a:11a~^s*aI~^Sw*",
":A)Sb^W4#b^K814)~z#6R)jK)NO8I)A*=S)U8#b)Lj))2*d))814I)b*4I)bZ)n,",
"N)I4:N~I4-b)Ky))z*6W~b.rR)f#8R)aa)W8$j)Rw*z~Ww#b)R0K)n$1I~N=4I)N",
"^Ly1:8S~B:1S)IWA:6C)A4>>y^)a:yR~~Ry:a)^y:11N)C2,AWI)K4,n^S8:1yI^",
")i#df*wK)f*8I)N8#C)C0=N8*j)Yw:a))a=wI)z*8N:,K)A$4A)L4:x)Kw*fd#y)",
"j$8~)y#r^^f*8K6$z)W>*x)I6$b)Y0$bN$8I)x#8Y)bO4R)j#0I5#j))y#y)~8#z",
"*2R))~8=y))iO4:s)~r#a)~)A:5A)A>21:S)A6*C)^)f.a~)a*4Oy)~s=8~))Y2*",
"2A)zz)Kw.z)Rw*r))i#a))yG)b,1C)B:=B)S11b)Ly^)w=i))0$r~^f$wK)zz)A2",
"B)F2,C)S21b)KaK)j:8W)z>8W~d*rR)ff)Rw*f~~w*z)I81f)KaK)x16S)C,2K^C",
")W42>*L)A*1S)K)N:,A)C$0Ow))s$6~))~8#a^)w*1=C)B6*b)I~A2>C)L*,24R)",
")r.zbO8K^B*:)^S:,B)I*=CdOf)~i$y~^y$i~)z*rS2*F)C11S)^:#N)I0#bz.w~",
"i:r~)f>wW)j*aC0$x)I8=x~L21z)K4,NN14I)x14K~b,6K)n*8Ci*j)R0:s)~y:a",
"$5I~)^r*a)~r*8$z))a.d)))A,=C)C61:4C)S:,C)~^jOy~)f#0$w~)s$wW))Y8*",
"2A)bb)K0#j)Ww$6)^d:0))xF)b:1F)C$#C)F1=b)Kj))w:a))4*w~)z#wL)bb)C1",
"B)S62n^S8:b)RwK)z#wR)x$0W)N*4W)zz)R4#n)R8*b)Yy*f)KyR)b=4K)n15S)b",
")I6:*:S)G1:C)W)z:2K)b1$>wR)f$0L))I0#d)~y==2z)I6*x)~)B:1S)S=*,5I)",
")y:as1rI^b14S)K11S^C25xd*f~Ri*i))a*yW~j*sx62B)S21I)S21x)Kw:sa:i)",
"f#r~)x#8~)f:0K2*f)Y6:z)R,>z)L2>bz14Y)b11R)z10K)z*1S0=z))8#x)~y#f",
":2)^R)y#a~)i=1:f)I8*b)K)I:,N)K2>:2K)N,:I)R)b*2~^f,2=a)~a$y)R~^41",
">A)Nb^R8:i~Rw:f)~a=iYRzA)n15A)B:=C)C51n)AzWIy:sW^f:0Y~a=8Y~bN)A:",
"x)C21x)K4$b)CiI)j:4R)a25Y)f*8L)ff)I8*f)Y6:j)Iw#z)IiA)b*2K)b26C)z",
")~2>,*A)S4:K^~)b*4C)S$4$y^~i$w~))~w#i~)r$1:A)F1=b)W)K:4S)A*1:2~)",
")y*zN*:L)C$4K)I*1C)C5>Ca#a)~r*r))r*rW)a#iS*8A)S,=I)K4*B)I,*Nj#y)",
"i*i^)x#6I)z*rxw#C)I2*b)R2#N)Iw#zz#wY)N#2R)f,4S)C#wbr*z)L8#x)~y*i",
"*0L^^Wd*y~)a1:1f)Yr=f~R)A41C)S0::8S)B14A)R~f,0I)f,:1a)~i:dW~~Iw*",
"1A)Cx)~w*z)Kw:w))fOr))aG)N.8L~S,>F~I8ON)Lw)^w*y))w:wL)z$8W)bC)S1",
"C)S2=x)I6*b)Ly^)d=aR)xO6W)f*8I)zj)Y8#f)~4#z)Ya*a)~yK)x*4I)z*:Z)S",
")Aw416N^N12C)RQC>wS)B4,>w~)f*8I))I8*j)~0::1N)A0:CWR^C11N)C4,10S)",
")8=fz11G)b:4S)N1=K)S2,ni#f)~y*y))y*r~)f#yN:1S^G*1N)S2:x)K1,zf*8)",
"a$iR~z$8~)x*4K8#b)L2$b)W0Of)~y*jh*yW)h#wR)b#1I)bO6K4$x)~8#z^~a$a",
"#rW~~)a*y^)f#4:z)IrOz)~)K::N)K1:=1K)N,:K)~)z#wI)j=4#a)^y#a))~Wr#",
"6I)xz)Ri#f))u:w)~w*a))rA)n1:N)C1,C)N:2N)Cw~)y*w^)w*a))f#yY)zb)K4",
"S~C61x~Y8>z)UfK)f:wR)f:4I^x*8I)zz)I8:x^I4:d)Rw=f)KfU)z:8U~z18C~S",
")L01*:A)K==C)R)b:8S)z*8$6))f$8~))~0$s))4$8$z)S8*b)R)C=*S)S:*,0I)",
"~w.bB:8A)N*1KRF*1S)A$4KaOf~Ry*y~~y#yW~f#yK6#Z)K4*SUI::N)S8#bx#r~",
"y:i))z:4I^z-8Nw*b)K5>N)Y41z)Y4,bz18U)z16I)N16G)b*yBq=z^I81j)^a:w",
"*8R)))y=y^)iO6*z)Y0Ox)~)S1*C)S8=*6Z)C*1F)~)zowY)z*6oa)^w=y))^Y8*",
"6K)zf)Rfoh)~r:0)^r$r)~iA)N=:S)A**Z)S:*N)SuW)y*y^)0:w~)z.iI)zz)G8",
"C)S2:x)I4*z)~aY)s#r~)f.8Y)N#,R)nb)U1#N)R8.s)~y#a)YdQ)j*4K)x:2A)C",
")K82:*C)K6*z)~)f$5R)x1*14R)z*8L))K0*z)U81:1z)W6#s)~)z*6K^C=:26K)",
"~r:zx18S)A1:A)B*4K)n18Nz#a~~d*y~~u:f~~s#zN01b^G2=C)Z:1A)S8>xz:wR",
"j.w^)b#8I)x*rS:,N)F1*x)R41f)R81fs:8I)f14R)b=1S)B1:Fr*x)I8Oz))y.d",
"*1))~)y$rL)N.::b)I6*x)K)R:*b)Y4,:8R)z::I)K)b*4I)b:1oz)R8#y))))1:",
"0K~zaW~a1a~~y*z~Wa*a~Wfn)C11N^S21S^N12C)bf~^a=aR~h*uW~f:dRRfzWGw",
"N)N,:x)L8=z)Ry))a:0R)a1:K)b#1G)zb)S4=z)I=1s)R8:d))yR)z*8I)z:1B)b",
"~R1,4:B~S4*b)))x#wI)b.4,5W)f*0Y))I6=z~R8:4.N)U8#z)^)C*=K)B*412Y~",
"~y#fC::S)C1=C)z=1K)N:*Gb#0~)j*5))8*f^~w#zG::N)G1=b)N21b)K:*Nj$r~",
"u=a~)n*4K)N*2C::S)K::C)Ri.f)~r.zf#i~^z#wY)C,1G)A::C2:N)I6$b)^a=y",
"#rR)^)j*rR~z2:4b)S8,b)YWY8,b~Gw1>rK~b:8I~I)n16S)b212f~Ww*f)))Yr*",
"1K)ba^)w*z~~f x)~iOa)~wK)S*1A)K=:G~S4$C)Kw^)d.a~^h.zU)NO0)~fb)G4",
"K)N2:f)W6=x)Iz)~r*aR)j.8A)N*1S)bN)S1:n)S5.z)Ra$rW)jY)x:6Y)f:1B)S",
")C6111N)S2>N)~~b*wK)n:,60R^j:wL)^K0,j^Rw61:n)Lw*b~^)N,2S)N2226A)",
"~4:zb:,S)x=2S)b11L)S::Bz$i))s*w))w*a^)a*jB::S)I1,b)A2=b)K>>bx=4)",
"w*f~)N*1Y)N:1b1:S)S:=C)RwOf)~r#ff*yW)j#0R)C*:S)S:1n>:N)R4Ox))a#y",
"Oa)~^)f#0W)x$:*n)K6On)W~W1*x)W5*$0^)z:1I~W)N.6K)N*>$z)R0*a)))Wr$",
"0Y)aa)~d#iR)z2y)Y8:d)~8N)A8*b)K12K)x*4S)N0W)f:0Y)i4j)Ri$fW)fj)Yw",
"F~N1*z~Rr:s~RbU)i:i)^i*8S)C11S)BC)A21C)S8*i^)i:y)UbW~s:wW~z=1B^K",
")Kw4>,C)L21N~R)z,wG)f*8:4~~j:8R))I4:z~~8=8*j)Gw>z)R^B11K^C,=2wK~"
};