/* XPM */
static char *ffa66cc1e9174880af7d7b3ae405015aRMkjgth6iCcgz5s8[] = {
/* columns rows colors chars-per-pixel */
"64 64 63 1 ",
"  c #C1C1C1",
". c gray76",
"X c #C3C3C3",
"o c gray77",
"O c #C5C5C5",
"+ c #C6C6C6",
"@ c gray78",
"# c #C8C8C8",
"$ c gray79",
"% c #CACACA",
"& c #CBCBCB",
"* c gray80",
"= c #CDCDCD",
"- c #CECECE",
"; c gray81",
": c #D0D0D0",
"> c gray82",
", c #D2D2D2",
"< c LightGray",
"1 c gray83",
"2 c #D5D5D5",
"3 c gray84",
"4 c #D7D7D7",
"5 c #D8D8D8",
"6 c gray85",
"7 c #DADADA",
"8 c gray86",
"9 c gainsboro",
"0 c #DDDDDD",
"q c gray87",
"w c #DFDFDF",
"e c gray88",
"r c #E1E1E1",
"t c #E2E2E2",
"y c gray89",
"u c #E4E4E4",
"i c gray90",
"p c #E6E6E6",
"a c #E7E7E7",
"s c gray91",
"d c #E9E9E9",
"f c #EAEAEA",
"g c gray92",
"h c #ECECEC",
"j c gray93",
"k c #EEEEEE",
"l c #EFEFEF",
"z c gray94",
"x c #F1F1F1",
"c c gray95",
"v c #F3F3F3",
"b c #F4F4F4",
"n c gray96",
"m c #F6F6F6",
"M c gray97",
"N c #F8F8F8",
"B c #F9F9F9",
"V c gray98",
"C c #FBFBFB",
"Z c gray99",
"A c #FDFDFD",
"S c #FEFEFE",
"D c white",
/* pixels */
"0kkk6tkgk4txkg4igkg:gkgk-ggkg-gkkg:kgkg-kgkg-kkgi:kkki4kkkt6kkkt",
"kDDDgbDDDgxDDDgbDDDibDCDtDDDDtCDDDtDDDDtDCDCtDDDCiDDDbiDDDbgDDDx",
"kDCDixDCDibDCDibDDDiCDDD0DCDDtCDCC0CCDC0DCDCtDDDCtDDDbiDDCxiDCDb",
"gDDDgxDDDibDDDgbDDDibDDDtCDDD0DDDDiDDDDiDDDCtDDDbtDDDbiDDDbgDDDb",
"6kgk40ggk4tkgg4tgkg:ikgk-gggg-gggi-iigi-gggg-gggi:gggt4gggt4kggt",
"0xkx0ixkx6txkk6ixxx4gxkx:kkkx:kkxk4xxxx:kkkk:xxxg6xkxi6xxxi6xkki",
"kDDDgxDDDgbDDDgbDDDiCDDDtDDDDtDDDCtDCDDtDDDDiDDDCiDDDbgDDDbgDDDb",
"kDCDgkDCDixDCDibCDDtbDCDtDCDD0CDDD0CDDD0DDCCtDDDbiDDDxiDCDxiDCDb",
"kDDDgbDDDgbDDDgbDDDgCDDDtDDDDtDDDDtDDDDtDDDDiDDDCiDDDCgDDDbkDDDb",
"4iig:0iig:6gig:0igi-tiig%iiig@iiit%iiii%iiit%gii0-ggi0-gii6:gig0",
"ibxbtgbxC0gbbb0gbbb6kbbb4xxxb4xxxx4xxbx4bbbx6bxbk6bbbg0bxbg0bxbg",
"kDDDgxDCDixDDDgbDDDibDDDtDDDD0DDDDtDDDDtDDDCtDDDCiDDDbiDDDxgDDDx",
"gDCDgkDCDixDCDixDCDibDCD0CDCD0CDDCtDDCD0DDDCtDCDbtDCCxiDCDkgDCDx",
"kDDDgbDDDgbDDDgCDDDiCDDDtDDDDtDDDDtDDDDtDDDDiDDDDiDDDCgDDDxgDDDb",
"4itg:6iii-6gii-0iii-0iii%titi@iiii%ttii%ttit%tti0-iiit-iti4-iti6",
"iCbbtgCbCtkbCb0kCbb6kCbC6bbbC4bxbb6bbbb6bCbb6CbCk0CbbktCbCgtCbCk",
"kDDDgkDDDgbDDDgbDDDibDDDtCDDD0DDDDtDDDDtDDCCtDCDCiDDDbiDDDbgDDDx",
"kDDDgkDDDixDDDibDDDtCDDDtCDCD0DDDD0DDDDtDDDCtDDDbiDDDbiDDDxiDDDx",
"kDDDgkDCDgxDDDibDDDiCDDDtCDDD0DDDC0DDDD0CDDCtDDDCtDDDbiDDDxgDDDb",
":iti:4iti-6tit-6tit%0ttt@0tti@titt@tttt@ittt@iti6%tti6-ttt6-iti6",
"gbCCigCCCikCCCtxbCC0xCCC6bCbD6CbCb0bbCb6CbCb0CbCx0bCCktCbCktCbCk",
"kDDDkxDDDgxDDDibDDDibDCDtDDDD0DDDDtDDDDtDDDCiDDDCiDDDbgDDDxgDDDb",
"kDDCgkDCDixCDDibDDDibDDD0CDCD0DDDDtDDDDtDCDCtDDDCtDDDbiDDDxgDDDx",
"kDDDgkDDDgbDDDgbDDDibDDDtCDCDtDDDCtDDDD0DDDCtDCDCtDDDbiDDDbiDDDb",
"-t0t-400i%:i0t%4t0t%6t0t.0t0t.0000@0000.tt00@00t6@t0t6%t0t:%i0t4",
"gDCDikDCDixDCDixDCCtbDDD0CCCD0DCCD0CDDC0CCDbtDCDbtDCDxtDDDxiDCDx",
"gDDDgkDCDixDCDibDDDiCDDD0CDCD0DDDC0DDDD0DDDCtDDDbiDDDxiDDDxgDDDx",
"kDDDgkDDDgkDCDgbDDDibDCDtCDDD0CDDDtDDDDtDDDCtDCDbiDDDbiDCDxiDCDx",
"gDDDixDDDgxDDDibDDDiCDDDtCDCD0DDDDtDDDD0DDDCtDCDCiDDDbiDDDxiDCDx",
"-t0t%4t0t%:t0t@6t00@6tt0.0t0t.0000@0000.0tt6@t0t6@ttt4%t0t4-t0t4",
"gDCDixDCDgkDCDibDCDtbDCD0bDCD0CDDC0DDDD0CDCCtDDDbtCDDxtDDDxiDCDx",
"kDDDgxDCDixDCDixDDDtCDDDtDDDDtDDDDtCDDD0DDDCtDDDbtDDDbiDDDxiDDDx",
"gDDDgkDDDixDDDibDDDibDDD0CDDD0DDDCtDDDD0DDDCtDDDbiDDDbgDDDxgDCDx",
"gDCDikDCDixDCDixCDDtbDDD0CDCD0CDCC0CCCC0CDCbtDCDbtCDDxtDCDxiDCDx",
"-t0t-:t0t%4tt0%4t0t@6t0t@600t@0000@t000.0tt0.t0t6@0tt4%t0t:-t0t4",
"kDCDgxDCDgxDDDgbDDDibDCDtCDCDtCDDDtDDDDtDDDCtDDDbtDDDbiDDDxgDDDx",
"gDCDgkDDDibDCDibDDDtCDDDtCDDD0DDDCtCDDD0DDCCtDDDCtDCDxiDCDxgDCDx",
"gDCDgxDCDixDDDibDDDtbDDD0CDCD0DDDD0DDDD0CDDbtDCDbtDDDbiDDDxiDCDx",
"gDCDikDCDixDDCixCCCtbDCC0bCCD6CDCC0CCCC6CDDb0DCCbtCCDxiDCDkiDCDk",
"-i0t%4t0t%4t0t%4t0t@6t0t@0t0i.00t0@0t0t.tt00.tt00@ttt4%t0t4%t0t4",
"kDDDgxDDDgxDDDiCDDDiCDDDtCDDDtCDDCtDDDDtDDDCtDDDbiDDDCiDDDbgDDDx",
"kDDDgkDDDgxDDDgbDDDibDDDtDDDD0DDDDtDDDD0DDDCtDDDCtDDDbiDDDxiDDDx",
"kDDDgkDCDixDDDibDDDiCDDDtDDDDtDDDD0DDDD0DDDCtDDDCtDDDbgDDDxgDDDb",
"iCbCigCbCtkbCbtkCbC0xCbb6bbbb6bbbb6bbCb6CbCx6CCbx0CbCktbbCktCbCk",
":iit:4iti-6iii:0iti%0tti%ttti@ttit@ttit@tttt@tti0%iii0-iti6%iti6",
"kDDDkxDDDgxDDDgbDDDiCDDD0DDDD0DDDDtDDDDtDDDCtDDDCiDDDbgDDDbgDDDb",
"kDDDgkDDDixDDCibDDDibDDDtCDDD0CDDC0DDDC0DCDCtDDDbtDCDbiDDDxgDCDb",
"kDDDgkDDDgxDDDibDDDtCDDD0DDDDtDDDCtDDDD0DDDCtDDDCiDDDbiDDDbiDDDb",
"tbxbtgbxC0gbbb0gbbb6kbxb4xxbx6xbbx6xxbx4bbbk6bbbk6bbbg0bxCg0Cxbg",
"4gig:6iig:0gig:0itg-tiii%iigi%iiii%tiii%giit-iiit%igg0-gig6:gtg0",
"kDDDgxDDDgbDDDgCDDDgCDDDtDDDDtCDDDtDDDD0DDDCiDDDCiDDDbiDCDxgDDDx",
"gDDDgkDCDixDDDibDDDiCDDDtCCDDtCDDDtCDDDtDDDDtDDDCtCDDbiDCDxgDCDb",
"kDDDgxDDDgxDDDibDDDtbDDDtDDDDtDDDD0DDDD0DDDCtDDDbiDDDbiDDDxgDDDx",
"txxb0ixxb0ixxx6gxxx6kxxx4kxxx:xxxx4xxxx4xxxk4xxxg4xxxg0bxxi0bkbi",
"4gig40gik:0ggi:tggg:tgig%iigg-iigi%iigg%gigt-gigt-ggg0:gig04kig0",
"xDDDgbDDDgbDDDgCDDDiCDDDtDDDDiDDDDiDDDDtDDDDiDDDDiDDDbgDDDxgDDDb",
"gCDDgkDCDixDCCibDDCtCDDD0CDCD0CDDCtCDDC0DDCCtDCDbtCDDbiDDDxgDCDx",
"kDDDkkDDDgbDDDgbDDDibDDDtCDDD0DDDDtDDDDtDDDCtDDDCiDDDbiDDDxgDDDx",
"0kkk6tkkk6tkkk6ikkk4gkkk:kkgx-gkkg:gkkk:kkgg:xkki4kkki4kgkt6kgki",
"0kkk60kgk4tkgk4tkkk4ikkk-gkkk-kggg:kggk-kkgg:xgki:kgki4kkki4xkki",
"kDDDkxDDDgbDDDgbDDDiCDDDtDDDDtDDDDtDDDDtDDDCtDDDCiDDDbgDDDbgDDDb",
"kDDCgkDCDixDCDixCDCtbCCDtCDCD0DCCCtDDCD0DDCCtDCDbiDDDbiDCDxiDCDx",
"kDDDkxDDDgxDDDgbDDDiCDDDtCDCD0DDDDtDDDD0DDDDiDDDbiDDDbgDDDbgDDDb",
"4gii46iig:0gii40igi-tiig%iiig@igit%iiii%iiit%giit-gig0:gii0:gii0"
};
