/* XPM */
static char *e36c5b67838e41e5ea4a6519a2a9e0726NfVVZ4cerBVfrxv[] = {
/* columns rows colors chars-per-pixel */
"64 64 256 2 ",
"   c black",
".  c #010101",
"X  c #020202",
"o  c gray1",
"O  c #040404",
"+  c gray2",
"@  c #060606",
"#  c #070707",
"$  c gray3",
"%  c #090909",
"&  c gray4",
"*  c #0B0B0B",
"=  c #0C0C0C",
"-  c gray5",
";  c #0E0E0E",
":  c gray6",
">  c #101010",
",  c #111111",
"<  c gray7",
"1  c #131313",
"2  c gray8",
"3  c #151515",
"4  c #161616",
"5  c gray9",
"6  c #181818",
"7  c #191919",
"8  c gray10",
"9  c #1B1B1B",
"0  c gray11",
"q  c #1D1D1D",
"w  c #1E1E1E",
"e  c gray12",
"r  c #202020",
"t  c gray13",
"y  c #222222",
"u  c #232323",
"i  c gray14",
"p  c #252525",
"a  c gray15",
"s  c #272727",
"d  c #282828",
"f  c gray16",
"g  c #2A2A2A",
"h  c gray17",
"j  c #2C2C2C",
"k  c #2D2D2D",
"l  c gray18",
"z  c #2F2F2F",
"x  c gray19",
"c  c #313131",
"v  c #323232",
"b  c gray20",
"n  c #343434",
"m  c #353535",
"M  c gray21",
"N  c #373737",
"B  c gray22",
"V  c #393939",
"C  c #3A3A3A",
"Z  c gray23",
"A  c #3C3C3C",
"S  c gray24",
"D  c #3E3E3E",
"F  c #3F3F3F",
"G  c gray25",
"H  c #414141",
"J  c gray26",
"K  c #434343",
"L  c #444444",
"P  c gray27",
"I  c #464646",
"U  c gray28",
"Y  c #484848",
"T  c #494949",
"R  c gray29",
"E  c #4B4B4B",
"W  c #4C4C4C",
"Q  c gray30",
"!  c #4E4E4E",
"~  c gray31",
"^  c #505050",
"/  c #515151",
"(  c gray32",
")  c #535353",
"_  c gray33",
"`  c #555555",
"'  c #565656",
"]  c gray34",
"[  c #585858",
"{  c gray35",
"}  c #5A5A5A",
"|  c #5B5B5B",
" . c gray36",
".. c #5D5D5D",
"X. c gray37",
"o. c #5F5F5F",
"O. c #606060",
"+. c gray38",
"@. c #626262",
"#. c gray39",
"$. c #646464",
"%. c #656565",
"&. c gray40",
"*. c #676767",
"=. c #686868",
"-. c DimGray",
";. c #6A6A6A",
":. c gray42",
">. c #6C6C6C",
",. c #6D6D6D",
"<. c gray43",
"1. c #6F6F6F",
"2. c gray44",
"3. c #717171",
"4. c #727272",
"5. c gray45",
"6. c #747474",
"7. c gray46",
"8. c #767676",
"9. c #777777",
"0. c gray47",
"q. c #797979",
"w. c gray48",
"e. c #7B7B7B",
"r. c #7C7C7C",
"t. c gray49",
"y. c #7E7E7E",
"u. c gray50",
"i. c #808080",
"p. c #818181",
"a. c gray51",
"s. c #838383",
"d. c #848484",
"f. c gray52",
"g. c #868686",
"h. c gray53",
"j. c #888888",
"k. c #898989",
"l. c gray54",
"z. c #8B8B8B",
"x. c gray55",
"c. c #8D8D8D",
"v. c #8E8E8E",
"b. c gray56",
"n. c #909090",
"m. c gray57",
"M. c #929292",
"N. c #939393",
"B. c gray58",
"V. c #959595",
"C. c gray59",
"Z. c #979797",
"A. c #989898",
"S. c gray60",
"D. c #9A9A9A",
"F. c #9B9B9B",
"G. c gray61",
"H. c #9D9D9D",
"J. c gray62",
"K. c #9F9F9F",
"L. c #A0A0A0",
"P. c gray63",
"I. c #A2A2A2",
"U. c gray64",
"Y. c #A4A4A4",
"T. c #A5A5A5",
"R. c gray65",
"E. c #A7A7A7",
"W. c gray66",
"Q. c #A9A9A9",
"!. c #AAAAAA",
"~. c gray67",
"^. c #ACACAC",
"/. c gray68",
"(. c #AEAEAE",
"). c #AFAFAF",
"_. c gray69",
"`. c #B1B1B1",
"'. c #B2B2B2",
"]. c gray70",
"[. c #B4B4B4",
"{. c gray71",
"}. c #B6B6B6",
"|. c #B7B7B7",
" X c gray72",
".X c #B9B9B9",
"XX c gray73",
"oX c #BBBBBB",
"OX c #BCBCBC",
"+X c gray74",
"@X c gray",
"#X c gray75",
"$X c #C0C0C0",
"%X c #C1C1C1",
"&X c gray76",
"*X c #C3C3C3",
"=X c gray77",
"-X c #C5C5C5",
";X c #C6C6C6",
":X c gray78",
">X c #C8C8C8",
",X c gray79",
"<X c #CACACA",
"1X c #CBCBCB",
"2X c gray80",
"3X c #CDCDCD",
"4X c #CECECE",
"5X c gray81",
"6X c #D0D0D0",
"7X c gray82",
"8X c #D2D2D2",
"9X c LightGray",
"0X c gray83",
"qX c #D5D5D5",
"wX c gray84",
"eX c #D7D7D7",
"rX c #D8D8D8",
"tX c gray85",
"yX c #DADADA",
"uX c gray86",
"iX c gainsboro",
"pX c #DDDDDD",
"aX c gray87",
"sX c #DFDFDF",
"dX c gray88",
"fX c #E1E1E1",
"gX c #E2E2E2",
"hX c gray89",
"jX c #E4E4E4",
"kX c gray90",
"lX c #E6E6E6",
"zX c #E7E7E7",
"xX c gray91",
"cX c #E9E9E9",
"vX c #EAEAEA",
"bX c gray92",
"nX c #ECECEC",
"mX c gray93",
"MX c #EEEEEE",
"NX c #EFEFEF",
"BX c gray94",
"VX c #F1F1F1",
"CX c gray95",
"ZX c #F3F3F3",
"AX c #F4F4F4",
"SX c gray96",
"DX c #F6F6F6",
"FX c gray97",
"GX c #F8F8F8",
"HX c #F9F9F9",
"JX c gray98",
"KX c #FBFBFB",
"LX c gray99",
"PX c #FDFDFD",
"IX c #FEFEFE",
"UX c white",
/* pixels */
"m..X'.{.`.].`.A.OX`.'.).oXG.N.I.H.G.L.Y.M. .#X(.[._.{.[.C._.[.'.`.}._.l.P.P.J.L.L.L./ (.'.{.{._.].W.H.}.{.}.'.XXx.J.J.L.H.S.E.0.",
"L.!.[.{.].}.oXZ.K.|.'. X[.c.-X+X+X*X}.%XV.'.n.oX).|./.oX!.n.OX).'. Xn.|.%X}.$X X*XK._.b.OX)._.}.{. Xm.{._.`.}.T.Y.$XoXOXOX&X XB.",
"R.V. X(.{._.}. Xn.{.|.}.S.Q..X/.{.(.oXS.T.XXA./.'.'.|.).$Xm.E.oX'.!.D.XX_.{.}.{.!.V.OXQ.B.+X].'._.|.Y.S..X}.{.v.}._.`.[.|.{.a.@X",
"-XA.Y.OX{.{.{.{.P.G. X_.m.@X)..X X'.}.N.[.[.~.N.$X(.'.{.).XXb.'.XXz.].}._. X`.oXZ.^.|.}.M.[.'.|. X].XXm.`.].J.Y.|.}. X}.|.Q.K.(.",
"R.|.V.)./.}._.).OXs.&Xm.).|.oX}.}.&XV.R..X`.+XS.Y.[.[.^.[.{.H.Q.E.L.#X.XoX{.|./.V.oX).XX^.N.XX`.(./.oX`.j.*Xj.$X.X}. X`.XXB._.OX",
"@X`.Y.U. X).'.[.}.(.f.U.@X'.{..X[./.B.&X^.{.{._.V..X_.{.'.'.[.N.C.[._.|.)..X@Xc.XX].{.(.}.M.].`.XX'.).XXL.l.'.[._. X}.%XF.L.$XW.",
"!.|. Xw.H.C.Z.S.M.I.O c.Z.J.b.Z.P.w.!.].[. X/.oXn.c.S.D.V.C.Q.[ } R.C.B.H.M.z.S.}.)..X|.'.).0.K.M.A.A.M.n.  I.V.D.C.n.D.a. X_.{.",
"'.XXJ.Y.$X{..X.XOX(.D.J.XX'.XX X'.XXc.oX).}.(.{.N.#X|.XX}..X|.J.G.].|.}.}.}.#Xb.`.[.].).XXn.{.XXXX X X$XI.F.W.XX}..X[.oXY.K.[.}.",
"XX{.v.OX X{.|.{.}.b.XXV.^.].`.`.].{.J.I..X).|.B.'.XX{.}.{.+XZ.~.!.C.oX/.].[.).).b.oX_.|.W.L.oX{. X].XX/.N.oXz.].`.'.{._. Xz.}.~.",
"/.S.[..X`.{.|. XH.U..X!.b.%X`.}._..X{.l.OX{.(.S.oX'.}.'.|.(.V.|. XV.~..X_.]. X XB.^.}. Xx. XXX'.}.[.XXm.`.[.U.P.}.{./.{.XX~.n.=X",
"XXM.[.]..X}.[.OXm.XX(.&XA.K.{._.].'.|.I.Z.@Xf.{.}.[..X[.+XB.W. X}.^.n.XX].'.`.'.].x.XXF.R.{.}.]. X XR.G.@X(.XXl..X_.].}.^.|.D.F.",
"l.#XoXoX#XoX#XF.^.{.).`.OXz.OXXX|.}.{.+XS.Q.^.=XXX&XOXOX_.H.OX].`.+XJ.W.XX.X{. X@XT.R.F.@X$XoX=X|.$Xm.}.`. X]._.B.$X X[.[.&X(.W.",
"0.K.H.G.A.J.b.B.XX).`.{.{.R.f.G.F.Z.H.I.M.q P.Z.S.F.V.U.p.).}.`.].'.].s.L.Z.G.F.Z.W.5 C.L.Z.Z.V.P.g.Y.oX[.!.].[.B.b.P.C.P.V.U.4.",
"c.^.Q.~.!.)./.n.{.{.{./.oXF.Y.'.(._.^._.H.3.).(././.^.'.N.W.|.'.`.oXE.C.{.~.`.).(.~.3.G.^.(.).).^.T.C.|._.}.{..XZ.~.(.}.~.!.}.h.",
"P.Y.#X}.`. X XI.F.+X(.oX(.b.XX].XX[.]..Xn.OXh.@X_.{.|.}.{.M.{.`.(.+Xb.'.+X|.].].&Xc.+Xm.|./. X[.}.|.C./.{.].oXA.P.oX[.).XXoX/.Z.",
"_.b.'.'.].'.).XXn.).`.oXn.[..X|.|.].%XA.^. XD.!.{.]._.).+XD.E.{. XY.H.$X'..X XOX~.S.XXE.N.OX[.).].}.^.n.@X/.`.V.OX{.OX|.{.@Xk.%X",
"#XR.S.XX).]._.|.W.S. X~.C.@X`.}.{.|.`.n.+X_.(.M.XX_.].'.).|.c.{.{.m.}.|.}.[.'.+XM.(._.OXb._.{.].).'.oXS.T.oXD.^.|.[.}.].+XJ.E.!.",
"!.}.M.}.|.}..X).%Xk.+Xn.oX}.}.XX}.+XN.(.|.).$XC.T.OXXX]..X@XT.T.U.E.@XOX{. X#XY.D.#X(.XX`.n..X}..X.X`.oXn.XXc.$X.X|..XXX].b.XX@X",
"|..XY.V.`.L.!.`.^.^.,.F.`.).].).[.!.F..X_.{.'. Xz.W.Q.R.^.I.).h.z.}.~._.(./.].b. X[.|.(.{.Z.Y.~.!.E.^.W.G.<._.'.(.).^. XC.^.@XU.",
").}.{.u.I.H.H.A.A.U.e M.J.Z.m.C.L.u.Y..X[.).].OXH.c.U.P.S.H.W.%.o.U.S.m.F.G.k.C.[.'._.`. X~.j.U.H.F.F.P.C., U.M.G.F.V.S.a.`.!.@X",
"[.'.D.`.#XoXoXOX@XW.W.D.+X|.oX#X}.&Xx.|.'.`.'.~.C.*X|.oX#X X}.Y.T.[.{.#X X}.#XC.'.{.].[. Xz.%X|.#X XOX$XF.W.R.&X].OX{.#X'.A.XX'.",
"}.).V.XX(.].}.]..Xh.#XZ.U.|.`.).`.].P.F.#X(.+Xc.}.{.|.[._.*Xv.~.^.x.#X`._.|.).}.l..X~.+XF.I.|.}.`. X].Q.D.oXh.].}.'.).`.{.n.]./.",
"|.Z.(.%XOX}.}.%XS.^.'..Xk.{. X(.}.).@Xv.(. XK.I.$X|.|. X|.^.D.@XOXB.W.`.`.[.(.oXP.I.OX).n.*X{. X{.#XoXb.OX|.~.Z..X^.XX~..X[.j.>X",
").B.OX).].}.{.).N. X`.XXP.G.[.[._._.].Q.m.XXm.}.'.}.'.[.+Xx. X(.).{.b.|.'.'.[.(.[.x. XC.).{.'.{.'..XJ.U..X/..XM.).{._. X^.}.H.S.",
"c.|.OXXXoX|.=XN.`.[.{.`.|.m.|.}. XXX}.#XK.Z./.$X XXXoX#XU.I.|.{.[.[.H.T.OX{.@X{.+X/.Z.J.*X}. XXX.XoXb.@X!.[.[._.M.$X{. XXX}._.R.",
"*.T.V.B.B.Z.x.V.oX).].[.{._.7.J.m.n.S.n.m.@ H.M.C.A.M.F.u.|.].)./.[..Xy.A.v.N.V.M.D.# z.S.Z.S.A.G.q.~.}.[.{.(.oXB.k.C.m.C.Z.L.>.",
"L._._._.`.].}.v.'.|.`.Q.$XB./..X.X}.}.#XL.f._.'.'.].!.[.L.T. X{.|..XT.H.+X X[.|.XX|.p.I. X(.).).`.'.x..X].|.).`.v.&X`. X|.[.OXk.",
"A.T..X}.].'.'.~.m.XX[.@X!.C.&X{.[.}.oX{.z.$Xl.oX_..X.X[.{.c.`.`.(.'.M. X}.oX}.}.XXj.+Xl.{.{.oX`._.#XC.Q.{.^.&XG.^. X X[.XXOXU.U.",
"OXj.].[._.). X|.A.).{.).v.}.'.[.XX`.#Xm.'.|.S.I..X).]._.}.!.F.XX+XA.Y..X[.[.].}.E.J.OX{.b.}._.].{.].].n. X.X~.z.oX{.}.{._.{.x.OX",
"XXW.Z.@X^.|./.[.E.V.XXW.D.%X[.|.`.oX^.H. X[.].m.|._._.{.).{.c._.(.x. XoX|./.oX$Xn.{._.XXM.~.}._.~.'.XXB.Y.|.Z.].oX].[. X%XC. X!.",
"Q.XXC.Q.+X|.XX`.;XA.{.G.oX`.OX X.X@Xc.|.{._.OXI.K.oXXX X{.XX].P.T.}.XX}..X+X@XG.Y.XX{.).}.v.oXXX@X|./.%Xn.`.G.+X{.@X XOX`.N._.+X",
"OX}.!.N.E.K.Y.E.P.^.R A.Q.^.P.I.E.H.J.|.}. X).XXN.Y.H.Y.W.L.!.e.0./.T.U.Y.T.Y.C.XX(. X[.[.E.N.T.K.~.P.Y.J.) E.R.Q.I.W.R.c.].}.Q.",
"E.|.'.j.T.E.L.R.!.R.Q F.P.W.I.Y.P.m.Y.oX`.[._..Xm.J.E.W.R.K./.r.9.Q.K.T.I.G.U.B.XX^.'.'. XW.n.W.I.E.W.R.L.L ~.L.U.U.H.U.n.!.|.XX",
"+X}.N.'.#X@X+X.X*XJ.[.m.$X|.].|.OX#Xl..X`.{..XP.H.=X$X|.$X+X].E.J.[.XX]. XoXoXP.U..X{.+X`.N.#X+XOX&X'.&XL.`.N.#X[..X|.#X~.V..X~.",
"^._.Z.$X X`..X X_.N.+XE.v.@X X'.).`.Q.S.|._.OXM. X+X).`.@XXXc.`.}.V.oX'. X].`..Xx.].'. XA.`.+X[.XX].+XH.U.XXA.~.}.^.}./.@XV.R.XX",
"OXb._.].[. X).+XC.W.}.}.b.[.'.'.[. X.Xv.{.|.C.E.}.'.XX[.}.I.H.oX].C.T.`.).]._.OXE.Y.|.].b.OX^.[._.).|.B._.|.~.C.}.XX'._.].{.z.OX",
"Q.F.$X+X{.[.#XW.V.@X/.{.~.N.XX{.'.].'.[.k.$Xv..XOX'.oX{.|.M.|.Q.|.|.n.}.[.|.[.^..Xf.OXM.).}.#X|. X-XA.U.+X`.}.V.Q.[.[.'.[.XXR.Z.",
"g.@X).|.|.[.+Xb.'.{.[.(.OXm.(.^.'.{.`.'.T.a._. X{.`.{. XL.Y. XXX'.{.P.J.{.!.].{.}.`.a.U.@X).{.}.'.(.V.OX'.'.{.[.b.}.'.].`././.P.",
"<.J.S.V.N.C.v.N.[._.].[._./.t.T.V.V.G.Z.z.$ G.V.Z.C.B.D.p.{.].`.'.}.|.p.K.B.S.S.M.U.X c.A.H.b.C.L.e./.`.[._.`.OXA.v.D.S.Z.C.R.:.",
"Y.[.}.|. X|.+XM.`.[.'.[..Xc. X}.XX X XOXU.D.Q.OX|.}.}.@XU.G.oX`.[.}.J.P.$XXX X XOX/.D.J.OX].oX X{.XXz.oX(.].|./.c.&X|..X|.oX|.z.",
"S.G.{./..X).[._.m..X_.|.R.K.@X{..X'..X).C.OXz.]._.[._.`.}.b.}.).`.|.v.#X X_..X].|.v.OXM.!.{.(.'.`.[.J.I..X_. XB.`.}.oX{.].%XC._.",
":Xg.]..X~.XX~..XC.^.}..Xl.|.oX`.].}.OXv.(.|.T.G.OX/. X].{./.M.OXOXA.~.[.|. X).$XH.R.|.(.v.+X}.'.`.oX}.l.oX[./.C.@X].{.}. XQ.N. X",
"^.[.m.}.'.`.[.}.].z.oXG.T.{.|.'.{.{.U.D.@X).OXx.{.'.]._.'.OXb.~.Q.b.@X}.).{..X`.c.OX).#XF.I.].'.)._.}.I.A.%Xj. X].[.]./.+XF.(.`.",
").XXA._.+X}.OX`.#XE.W.G.@X#X.X%X@X*XN. X`.[.(./.A.oX X].oX|._.E.T.XX@X@X+X%X@XF.(./.[.'. Xb.@X.XXXXX X@XS.W.!.$XoXOX%X$X(.S.'.XX",
"@X^.].a.D.Z.H.H.m.U.2 C.U.D.F.D.D.g.Y.|.'.).XX|.B.c.F.L.V.Z.W.X.@.T.S.A.G.G.N.V. X.X(.]. XU.f.G.V.N.F.L.M.e U.A.G.F.D.H.u..X}.^.",
"Y.$X/.Z..X(.`._.].`.6.H.^.~.Q.Q./.W.S.|.(.{.[.}.n._.`./.).(.].c.l.`.!.W.^.(.E.n.}.].{.).|.D.!.`.`.[.).`.G.2./.!.^.Q.E.{.C.Y. X X",
"OX}.z._.|.{.].|.+Xx.oXb.XX_..X.X}.{.V.).|.`.XXD.U.%X[.]. X.XW.U.T.U.oXXX`.{.#XI.S.XX`.}.(.V.}.|..X[.[.XXm.#Xl.$X]..X[.'.].B.}.~.",
"^.W.J.#X{.}.{.XX~.G..XT.V.OX'._._. X).n.+X).'.N.oX`.}.|. X|.b.{.}.c.{.`.`.{.^.OXn.'._.+Xb.`.oX'.}.[.&XA.~.|.S.W.{.).}.).XXF.T.@X",
"-Xj..X|._..X_.XXn.'.).OXv.)..X_.`.`.oXC.E..XD.Q. X].{._.OXF.Y.}. XT.G.OX).[.`.{.Q.D..X^.A.$X`.].'..X'.v.oX`._.n.oX).].].'.].b._.",
"N.).@X|..X}.oXT.G.oX'..X).B.[.|..X.X_.oXm.OXv.$X'.OX}.XX|.v. X_.).}.b.{. X}..X`.%Xl.+Xv.|.[.|.+X|. XN.).|._.+XS.U.+X|.[. XOXR.K.",
"j.[.^.)._._.`.V.}.`.].).|.Z.R.).Q.Q.!.^.F.3.).].'.).).[.C.^. X].].OXE.B.`.R.^.Q.W.^.3.K.[._.].).`./.A..X_.].}.}.l./.W.!./.T.'.v.",
"4.U.A.Z.S.F.v.m.|..X(.]..XT.h.J.G.H.G.Y.V., I.M.F.Z.Z.L.i.].].'.`.[.].a.U.S.F.J.F.T.e m.K.D.N.V.K.y.!.{._.{.'.oXV.B.H.D.H.G.P.9.",
"Y.`.@XoX[.@XXXC./.).{._.}.N.*XOX@X|.#X#XG.R.T.%X].$X'. X/.A.+X).`.|.K.(.XX+X$XOX$XQ.E.Z.OX XoXOX}.=Xh.XX{.^.[.~.H.@X@X@XXX+XOXl.",
"K.N. X'.}.'.{..Xl.OX).oXA.Y.}.].).{.[.T.F..Xj.].'.`.[.`.oXM.Q. X|.~.m.+X'.'.'._.].g.%XD.Y. X_.(.]._.Y.D.@X`.XXv. X^.|.{._. Xb.+X",
"=XA.E.|.].(.(.XXH.R. X_.m.$XoX|.{.@XXXc.OX|.^.A.oX^..X).[.'.M.oX|.S./.XX|.|..X@XS.(.[. Xh.{.oX].].{.#Xc./..XY.J.+X XXX'.XX|.Z.(.",
"^.{.m.|.`.[.|.(.[.k..XV.).|.). X{.oXG.Y.|.)..XM.^. X).].`.}.C.W.^.B.@X].{. X|.`.N. X_.XXU.K.[.`.'.).[.!.M.XXn.}.].}.[.|.oXx.[..X",
"}.}.I.T.XX[..X|.+X~.S.J.%X.X|.oXXX{.m.XX).'.[.`.m.$X X|. X.X{.J.K.|..X X.X.X$XN.'.'.]./.oXl.OX|. XOX].OXU.D.!.@X.XXX}.%XY.J..X_.",
" X_.}.u.F.N.C.C.b.I.o B.V.S.S.Z.K.q.).'.}. X).}.C.j.b.D.m.N.Y.[ [ ~.S.M.K.S.c.M.}._. X}.|.W.9.K.N.c.G.V.c.O Y.C.S.Z.Z.K.r.XXXX^.",
"Y.$XU.F.+X'.}.`.|.`.h.J..X_.).].`.[.M.}./.[.'.XXc.@X X).|._.{.C.M.`.(.}./._..XM.'..X].Q.$Xn.^.[..X}.].oXJ.s.(.].].`.(.}.P.P.).OX",
"#X'.V.XX].oX.X.X@Xd.&Xk.).oX'.].`.XXB.~..X(.oXV./.|.{.oX.X$XL.E.Q.L. X(.[.].].R.B..X(..XQ.A.-X|.[..X X`.b.*Xh.oX[.[..X)._.C. XE.",
"/.J.E.{.{. X}.[.W.L. X}.b.|.`.].|.'.[.m.{.{.~.Z.oX`. X`.}.].x.XX{.b. X|.).}.`.$XV.~.}.}.B.|.).].oX^.#XV._.|.J.I.'.'.'.'.XXI.C.=X",
"#Xh.+XOX}.].[.+Xb._.`.}.S.E.XX(.'.].+XN.E.XXB.!.|. X|.'.+XG./.{. XE.M. X[.[._.'.^.M.|.I.A.#X[.+X].XX!.F.{.].].n..X|.'.}.).XXZ.W.",
"B.}.+X XOX+X$XK.E.oX{.`.].c.}..X}._.(.OXv.(.J.*X|.#X{.$X}.b. X'.'.OXn.). X_..X_.$Xn. XD.%X}.@X}.oX=Xx.]..X'. XI.C.XX{.'.[.'.E.H.",
"9.W.F.J.L.J.K.v.}._.].].XXK.T.'._.{.{.'./.~ K.L.K.J.L.P.l._.}.`.'.{._.V.}.{._.{._.XX..m.K.I.J.L.H.C.J.XX`.].).oXC.).'.'.}.].XXN."
};
