/* XPM */
static char *dd060aaadc6545b2faeb694e42def8bfEYqHPprFfJvv6fml[] = {
/* columns rows colors chars-per-pixel */
"64 64 252 2 ",
"   c #010300",
".  c #020400",
"X  c #050700",
"o  c #070900",
"O  c #080A00",
"+  c #090B00",
"@  c #0A0C00",
"#  c #0B0D00",
"$  c #0C0E00",
"%  c #0D0F00",
"&  c #0E1000",
"*  c #0F1100",
"=  c #101200",
"-  c #111300",
";  c #121400",
":  c #131500",
">  c #141600",
",  c #151701",
"<  c #171903",
"1  c #181A04",
"2  c #191B05",
"3  c #1A1C06",
"4  c #1B1D07",
"5  c #1C1E08",
"6  c #1D1F09",
"7  c #1E200A",
"8  c #1F210B",
"9  c #20220C",
"0  c #21230D",
"q  c #22240E",
"w  c #23250F",
"e  c #242610",
"r  c #252711",
"t  c #262812",
"y  c #272913",
"u  c #282A14",
"i  c #292B15",
"p  c #2A2C16",
"a  c #2B2D17",
"s  c #2C2E18",
"d  c #2D2F19",
"f  c #2E301A",
"g  c #2F311B",
"h  c #30321C",
"j  c #31331D",
"k  c #32341E",
"l  c #33351F",
"z  c #343620",
"x  c #353721",
"c  c #363822",
"v  c #373923",
"b  c #383A24",
"n  c #393B25",
"m  c #3A3C26",
"M  c #3B3D27",
"N  c #3C3E28",
"B  c #3D3F29",
"V  c #3E402A",
"C  c #3F412B",
"Z  c #40422C",
"A  c #41432D",
"S  c #42442E",
"D  c #43452F",
"F  c #444630",
"G  c #454731",
"H  c #464832",
"J  c #474933",
"K  c #484A34",
"L  c #494B35",
"P  c #4A4C36",
"I  c #4B4D37",
"U  c #4C4E38",
"Y  c #4D4F39",
"T  c #4E503A",
"R  c #4F513B",
"E  c #50523C",
"W  c #51533D",
"Q  c #52543E",
"!  c #53553F",
"~  c #545640",
"^  c #555741",
"/  c #565842",
"(  c #575943",
")  c #585A44",
"_  c #595B45",
"`  c #5A5C46",
"'  c #5B5D47",
"]  c #5C5E48",
"[  c #5D5F49",
"{  c #5E604A",
"}  c #5F614B",
"|  c #60624C",
" . c #61634D",
".. c #62644E",
"X. c #63654F",
"o. c #646650",
"O. c #656751",
"+. c #666852",
"@. c #676953",
"#. c #686A54",
"$. c #696B55",
"%. c #6A6C56",
"&. c #6B6D57",
"*. c #6C6E58",
"=. c #6D6F59",
"-. c #6E705A",
";. c #6F715B",
":. c #70725C",
">. c #71735D",
",. c #72745E",
"<. c #73755F",
"1. c #747660",
"2. c #757761",
"3. c #767862",
"4. c #777963",
"5. c #787A64",
"6. c #797B65",
"7. c #7A7C66",
"8. c #7B7D67",
"9. c #7C7E68",
"0. c #7D7F69",
"q. c #7E806A",
"w. c #7F816B",
"e. c #80826C",
"r. c #81836D",
"t. c #82846E",
"y. c #83856F",
"u. c #848670",
"i. c #858771",
"p. c #868872",
"a. c #878973",
"s. c #888A74",
"d. c #898B75",
"f. c #8A8C76",
"g. c #8B8D77",
"h. c #8C8E78",
"j. c #8D8F79",
"k. c #8E907A",
"l. c #8F917B",
"z. c #90927C",
"x. c #91937D",
"c. c #92947E",
"v. c #93957F",
"b. c #949680",
"n. c #959781",
"m. c #969882",
"M. c #979983",
"N. c #989A84",
"B. c #999B85",
"V. c #9A9C86",
"C. c #9B9D87",
"Z. c #9C9E88",
"A. c #9D9F89",
"S. c #9EA08A",
"D. c #9FA18B",
"F. c #A0A28C",
"G. c #A1A38D",
"H. c #A2A48E",
"J. c #A3A58F",
"K. c #A4A690",
"L. c #A5A791",
"P. c #A6A892",
"I. c #A7A993",
"U. c #A8AA94",
"Y. c #A9AB95",
"T. c #AAAC96",
"R. c #ABAD97",
"E. c #ACAE98",
"W. c #ADAF99",
"Q. c #AEB09A",
"!. c #AFB19B",
"~. c #B0B29C",
"^. c #B1B39D",
"/. c #B2B49E",
"(. c #B3B59F",
"). c #B4B6A0",
"_. c #B5B7A1",
"`. c #B6B8A2",
"'. c #B7B9A3",
"]. c #B8BAA4",
"[. c #B9BBA5",
"{. c #BABCA6",
"}. c #BBBDA7",
"|. c #BCBEA8",
" X c #BDBFA9",
".X c #BEC0AA",
"XX c #BFC1AB",
"oX c #C0C2AC",
"OX c #C1C3AD",
"+X c #C2C4AE",
"@X c #C3C5AF",
"#X c #C4C6B0",
"$X c #C5C7B1",
"%X c #C6C8B2",
"&X c #C7C9B3",
"*X c #C8CAB4",
"=X c #C9CBB5",
"-X c #CACCB6",
";X c #CBCDB7",
":X c #CCCEB8",
">X c #CDCFB9",
",X c #CED0BA",
"<X c #CFD1BB",
"1X c #D0D2BC",
"2X c #D1D3BD",
"3X c #D2D4BE",
"4X c #D3D5BF",
"5X c #D4D6C0",
"6X c #D5D7C1",
"7X c #D6D8C2",
"8X c #D7D9C3",
"9X c #D8DAC4",
"0X c #D9DBC5",
"qX c #DADCC6",
"wX c #DBDDC7",
"eX c #DCDEC8",
"rX c #DDDFC9",
"tX c #DEE0CA",
"yX c #DFE1CB",
"uX c #E0E2CC",
"iX c #E1E3CD",
"pX c #E2E4CE",
"aX c #E3E5CF",
"sX c #E4E6D0",
"dX c #E5E7D1",
"fX c #E6E8D2",
"gX c #E7E9D3",
"hX c #E8EAD4",
"jX c #E9EBD5",
"kX c #EAECD6",
"lX c #EBEDD7",
"zX c #ECEED8",
"xX c #EDEFD9",
"cX c #EEF0DA",
"vX c #EFF1DB",
"bX c #F0F2DC",
"nX c #F1F3DD",
"mX c #F2F4DE",
"MX c #F3F5DF",
"NX c #F4F6E0",
"BX c #F5F7E1",
"VX c #F6F8E2",
"CX c #F7F9E3",
"ZX c #F8FAE4",
"AX c #F9FBE5",
"SX c #FAFCE6",
"DX c #FBFDE7",
"FX c #FCFEE8",
"GX c #FDFFE9",
"HX c #FEFFEA",
"JX c #FFFFEB",
"KX c #FFFFEC",
/* pixels */
"$.K v.iXyXdXeXH.l.G I.%.t.N.3XqXnX8XW.) { ^ :.) 8XyXsXgX].v.T v.M.F Z.].pXhX9X5X^ } } o.^ XXiXsX8X>XH.@.u.S.K h.R.8XlXyXhXi.J -.",
"A 8 $.fXdXC.T ^ x @.;Xg.e D T l.XXKXZ.. R I C < >XKXC.-.J I v |.).u U U ;.Z.KX+Xa M J T   C.NX*Xx.J G u 3.<X3.a W W I.wXgX@.u C ",
"S.0.!.;X@.l o.` ^ %.1XU.W ! *.A H R.*Xs.H.s.C.n.3Xq.I ~ ` } g *X*Xs ] [ W J s.5Xj.K.h.M.l.<XZ.I A $.{ B (.#X:.) ^ o.V  .;X).i.Z.",
"hXiXqXW D `  .o.c M.KX&XB X.A X.` g !.HX3XzXeXnXp.z o.^ [ } ;.eXdX9.)  .~ ` F s.iXdXNX;XHX].s ^ } U ^ F *XKXt.J o.) ) K ) 8XyXzX",
"9XkX-.A @.` o.G ( &XdXdX-.! 3.W } o.n 5XgX8XAXx.C { } ) W z I.kXsXU.g } { ) X.g K.NX3XcX;Xu } o.! 1.U p.<XlX;X^ K  .^ :.J *.dXwX",
"dX|.u $.[ I X.H S.eX9XNX>Xe [ / ) U ^ 0.yXVXXX` R ` U @.U 3.7XgXsX3X3.^ $.U X.U @.}.nXgX<.U ) R U  .c +XcXeXzXl.F %.U [ X.z XXiX",
"dX*.I K  .8.t 5.hXHXfXpXnX(.$ <.;.U R A |.nXM.G } ) $./ J *XvXsXvXzX;XF T *.} $.v C.nXXXA ) { } @.a R.cX9XHXvXlX2.s 5.} C ) ;.sX",
"}.V  .<.I 0 g.*X!.W.(.}.I.;X_.0 H ;.} v U.sXX.I o.] N } ].+X!._.}.K.;X].) A ~  .R :.5XK.H ) %.I z I.&XR.XXR.(.!.;Xs.: ! <.@.N &X",
"Z.n T n T C.zX&XO K A K = C.kX}.@.C R z w.<XA ) N H u.;XzX[ g J U u o.lX>X0.U n ^ G *X9.D U j 5.|.kXM.  ! V I + ;XlXC.W N T M H.",
"q.F j.K.>XSXdX].B $./ $.K v.nXlXdX!.u.{ %.j.T } H.XXlXlX5Xo.^  .o.R $.3XvXfX#XZ.@.} u. .@.M.U.eXlXnXM.V -.! %.G }.dXAX1XI.j.F i.",
"I.;X1XcXzX<XCX#XD I @.! V N.dX9XzXNXfX5XI.D.XXlXhXqXkXnXqX:.` R ~ ~ 5.8XnXdXyXdXyX#Xb.C.<XhXgXkXiXqXH.V T { ) G #XVX>XcXvX<X;XR.",
"5.-.K.!.wXnXhX(.I 8.X.!  .n.7XVXyX+XN.5.3.9.*.3.'.1XkXfX*X%.] $.*./ ;.&XgXdX8X(.9.:.u.r.h.N.#XCXlXgXM.K o. .$.) (.hXvXqX!.K.*.8.",
"M.e H c <.!.yX8X. H e A e r.KX_.t.) J q 9._.T V x ` b.yXgX} 0 A G 4 o.fXpXl. .z I A !.*.z N R 8.].HXt.5 D q I   7XyX!.:.c H u M.",
"XX^ ` [ T M b.}.U.H.R.(.q.#XoXU G J *.V D.qX .R ;.I g 5.;XR.b.R.W.h.~.*X9.a W *.^  .hXM.K *.^ A ] (.*Xt.!.U.).S.}.n.B U ] ] ) XX",
"9X/ ^ [ W ) I s.cXdXqXpXKXW.e [ X.{ [ I _.hXM.R ) -./ D *.<XKXpXsXFX3X$.F W 2./ B l.lX(.n ~ } o.T D !.hXKXeX;XHXp.U ` R ] ) ` qX",
"gXF.l  .X.} A B S.nXfXkX&XK X.^ ) [ K -.qXNX#XB ] ~ { } F q.wXpXsX5Xt.C X.) ] ] J #XpXcX@.W ! ) ` / ~ ;XsXqXAXM.N G X. .X.v I.hX",
"vX5X@.K -.) I / { 3XyXkX3.T  ./ T 8.a |.nX7XVXg.M @.) T @.c R.gXhXW.j <.F [ o.v h.cXpXzXoXe <.T ` o.M x.7XnX*X~ { V / 2.D 3.;XcX",
"iXHX|.! c @.r.[ n S.nX5XU H  .{ 3.4 S.HXqXyXSXqXo.! ! *.X.V r.lXhXr.H ^ *.*.g 3.iXnXfX5XKXC.< 2.` { J [ *XnXH.A { 5. .V K XXNXyX",
"(.S.#X}.X.n I { ! :.yXU.G $. .D g M.dXg.(.(.!.(.1X5.c T ) { H #X#XT !  .U l r.>X}.H._.R.x.fXb.s U ` %.M I.qX3.I [ T c -.).XXH._.",
"x o <.eX;Xh.~ B x T 1Xt.0 x T -.~.SXZ.+ U g c + 7XqXZ.@.D M : (.oX  H I ^ H.eX5X& a z J = S.CX~.5.H c & s.;X! e B ` s.3XqX@.: c ",
"*.H v.pXnXdX].S.r.@.R.r.2.v.W.qXSXyXW.H X.@.<.{ &XVXfX#XI.v.` F.K.) S.S.&XcXdX;XX.$.;. .U R.yXHX1XR.N.<.r.I.*.p.S.}.eXnXiXp.! @.",
"%.K r.1XfXfXhXcX+Xr.x.t.(.pXhXKX*XpX}.K / ( W ! qXyXdXNXpX*Xn.p.s.M.&XhXAX8XlX3X~ K o.! U ].eX>XSXcXiXW.t.n.q.+XnXgXhXfX3X9.~ o.",
"` G u.fXkX&XH.o.T ` ].i.G { q._.VXVXH.D | / $.H ;XiX9X'.3.T H H.~.4 $.0.I.pXkXoXU X.} [ H D.nXAX].i./ j p.+X/ D @.S.8XlXgXu.I ] ",
"{ s 5.nXR.A T W I / 7Xx.l [ K H q.dX(.: { ` H H <X7X-.l U [ j &XXXe  .U B %.iX>XR V X.` 4 _.yX0.V ! o.0 M.5X[ / T D ) I.cX3.a { ",
"3X<X*XZ.g / { $.A g.kX~.V -./ { n %.;XiX*X>X<X1X}.H K { X.{ I 7XqXT o.X.} I I }.5X<X+X5XqX&XX.F ] { *.c }.hXq.H X.) ` v C.<X9X<X",
"pXAX!.t { $.K { I (.fX7X` H $.^ @.! <.7XcXwXnX7XG ! X.K o.c v.fXgXx.c o.H X.! H >XVXhXlX9X;.^ / ` { I @.3XsX].F ~ T -.T a ].pXfX",
"cX&Xn X.{ I 8.H <.qXkXkXv.M ) @.[ T M U.kXfXyX{ ` I *.o.{ V >XyXeX>XB } o.*.U ` :.sXpXiXZ.g U @.%.U B S.fXfXiX$.) { X.` ) B <XkX",
"yXM.j X.U *.A A XXcXcXpXqX0.x / T %.! %.XXnX#XG T [ / ) , !.pXkXcXfX!.< ] ) [ W J #XyX5Xo./ ) ) W B 8.7XcXcXiX&XV J @.! ` K s.cX",
"<XK { X.*.V A oXpXqXeX3XkX1X:.I o.} / A !.cX<.M -.) X.t H.3XqXyXsXeX3XI.u X.) :.g w.zX}.c @.] { J 8.;XiXwXyX1XkX'.H M o.;./ T 1X",
"|.c <.I B [ XX].o.-.5.8.[ F.<X<.M D X.M v.3X^ @.~ H H v.eXv.{ <.3.` l.yXn.G G / 2.) 8Xs.V ] H B 0.#XZ.X.;.2.5.o.XX).{ G / ) / !.",
"l.$ V ! j.cXeX5Xt W W [ e s.KXqX}.q.! 4 @.S.V u U s.+XcX3X[ ) T ! ~ ) 7XvXXXi.T l s I.$.B C 8.~.iXKXp.a ~ U ` t >XKX5XD.T T   Z.",
"i.K.oXhXpXpXnX_.G o.I  .I M.iXpXfXqX*XW.n.l.C.}.1XhXyXkXqX;.H { o.F -.iXvXyXfX7XXXC.b.p.W.*XpXdXyXfXv.G *.T ` I XXiXkXwXzX'.(.g.",
"C.XX*XvXpXyXgX*XI ) [ [ G Z.hX8XfXiX7X|.K.C.U.;XpXcXfX9XyX*.W { @.J 5.9XyXgXhXdX<XH.C.C.+X3XfXlXeXkXI.F $.{  .T &XyXfXeXkX1X}.C.",
"8.  ] <.W.NXzX].B [ ) X.j h.NXgX+Xp.W = ! j.l 0 { N.>XKX9X{ ^ ^ ] U @.5XKX<Xv. .u e v.J g ! l.'.dXnXi.s ) ~ ) M #XzXdX!.*.^   g.",
"(.U  .c l <.oX9Xn ) ) X.R !.>Xx.D K %.B x.>XW X.^ A ^ N.fX8.U $.*.K 8.kXn./ v ) X.U 9Xl.A [ U U N.8XR.) ] o.` G 5X}.;.M ~ T ~ W.",
"*XV @.$.2.H W ].hXqXyX<X;X<X1.x  .[ ^ D (.nX3.M @. .) G C.yX*XyXeX*XqXF.V ] ) %.I 9.8X(.n @./ [ v 3.*X<X;XyX8XzXXX] F @.{  .T <X",
"kXl.z X.I  .K H 3XeXhXnXhXr.I } ) *.I [ ~.kX+XG W { { / q ].NXfXdXVX~.s R } ` / x *XhX>XT I ] { [ A w.dXNXyX9X<Xl U X.{ ) W w.iX",
"yX<Xu %.o.W  ./ 5.gXgXyXR.v ~ { @.W c H.fXdXqX) ^ / { @.W ^ <X9X5X3XT / o.) / ) X.9XeXdXR.V W [ o.T C !.vXsXkX8.o.! ^ / o.t ;XlX",
"lXyX_.8 [ ` [ / C ;XkX>Xo.U *.R [ K @.3XnXyXcX;XA W :.A *.l S.zXgXF.j ;.G o./ G >XvXfXzX<X) K %.W $.I @.5XfX&XA ~ I *.~ N I.pXdX",
"7XyX+Xb.a o.) o.A s.eX*Xl o.[ { V %.#XyX<XqXqX9XH.B W X. .! U dXiXT ! o.*.D G I.7X9X1X9X9X;XX.B o.{ ] V *XpXt.K ) *.) x t.<XgX1X",
"8.I x.yXS.G A W [ o.<XD.H ] K n 3.9XW.^ -.[ 5./ qX'.[ A T X.K +X#XB X.~ j / oXqX{ 2.o.;.` ~.sX*.B )  .z R.5X@.{ ` C G v.NXu.T 2.",
"R n 0.qXdXXXl.^ u W _.r.g B 1.~.yXAXI.: / [ V F <XkXuXz.X.B X W.R.  T { C.<XNX|.H D W U c K.sXnXR.:.B , i.!.T 5 ! l.>XiXpXo.C ! ",
":.W i.wXzXdXdXwX].s.b.9.F.>XpXNX9X9X}.! 2.] @.X.1XkXqXMXcX@XN.g.M.b.&XcXcX5XnX;XX.X.@.-.U XXcX>XNXdXeXb.l.M.v._.pXiXhXgXyX5. .@.",
"o.F u.yXzXlXeXI.x.:.K.0.t.R.#XiXHX7X}.u / -.` G 1XqXSXeXI.!.:.x.C.:.U.R.5XHXyX<XJ X.*.U D _.&XKXiX|._.:.j.D.5.j.(.7XlXhXyXq.) ~ ",
"! 2 5.nX5Xg.$.C M K ;Xr.e V ^ 0.].KXK.  H T U u yXuX(.X.B K $ }.).  W z 5.R.dX>Xu R R A 2 F.AX|.9.I A , i.oXW c B @.M.8XfX@.a U ",
"K.r.!.*X<.g G o.] *.eXI.C } ^ G n K.;Xn.F.p.N.H.<Xn.g A @.X.T <X&XF @. .T a M.&XH.j.M.K.g.>XXXe U ! @.A U.eX2.} X.F g 5.&XI.j.S.",
"pXHX*Xo.G o.*.[ n x.zX<XR / o.$. .e XXhXyXHX5XlX3.V [ X.) T @.5X9X:.I ` `  .N t.NX<XCXyXSX~.< -.$.[ ^ / &XkXx.z } *./ H *.;XKXqX",
"dXeX5.c } o.K } } 1XzXdX*.~ ) W @.T F <XpX1XHXv.x X.[ / o.j W.zXzXR.B ) o.R o.z K.nXeXhX}.v o.` W / W r.wXnX<X) ) U  .$.B :.qXhX",
"NXC.M  .^ *.T c x.dXfXkX].u <.^ / $.T 3.fXyX5XK @.H / @.V <.qXiXdX5X-.B @.) T $.T 3XiXdX3.T X.) [ { v |.sXlXhXj.v / -.I ) G H.nX",
"5X:.I  .@.T D 3.zXcXyX7XHXW.2 { { ` I I #XkXH.K ! -.@.I ` XXKXpXfXKXXX .K X.<./ V H.zXXXn ) `  .{ 0 ].KXnX9XnXNX2.B U -.$.K -.qX",
"+XT X.R I M 8.qXW.~.+X+XM.qXS.M W ! -.I R.dX .I ` ! n { !.oX}.!.(.].#X_.] x ~ [ K  .zXH.D 1.W K j '.>XM.*XoXW.~.<X8.C I W o.^ #X",
"l.2 G U :.S.eX&X& H g K O q.HX'.3.U B q <.|.I G ! ! r.yXkX! = V D & / nXwX9.^ ^ ~ V *X$.g z I 3.XXNXs.  ! < } X XXsXK.@.F U e b.",
"h.@.s.C.+XfXHX~.x *.) $.) v.eXhXeX].g.3.:.j.@.:.x.XXaXuX;X<.{ o.%.` :.<XiXdX+Xx.3.) g.:.q.j._.dXNX5Xn.o.) o.:.n |.AXeX#XD.i.o.n.",
"C.&XpXhXnXpXfX3XK o.W G A n.fXiXpXnXyX5XH.Z.'.eXVXqXpXMXaX$.I W / G @.fXVXfXyXNX9X}.n.R.#XVXgXiXpXiXR.e ) W ) T 7XpXyXCXnXfX#XN.",
"r.%.n.(.qXiXiX+XC 5.` o.[ N.gXdXfX*XC.<.r.M.<.q.I.7XnX7X<X3.@.o.$.X.3.5X9XnX9XK.u.5.n.i.%.U.|.yXeXzXn.^ $.[ $.F }.dXgX8X~.Z.:.0.",
"n.+ V I @.(.NXoXO g K M   j.nX&X0.! V 4 :.E.B b M { Z.7XcXK : D H : T VX5XM.[ n G u (.$.j M ^ r.;XzXx.  A N G   &XzXW.%.T n + U.",
"}.I / ) T M n.;XI.R.H.H.I.+X'.G H [  .A S.3X%.E %.H H <.}.XXC.R.).n.+X#X$.D T  .W *.yXC.H [ { D H }.].S.!.K.C.R.;XS.s T [ o.F |.",
"eX@.)  .[ { 5 M.pXcXHX7XHX!.e ` X.{ ! H |.NXg.W  . .o.K ^ 5XpXgXsXhX5XT W o.) @.I i.nX(.D R  . .U x #XNX7XHXnXdXg.u { X.[ ) [ zX",
"cX!.8 o.) ` :.u U.hX+XnX3XM [  ./ U X.*.yXkXoXU /  .H X.U r.dXdXfXeXr.W { J @.^ T #XkXqXX.X.I ^ ` X.H +XcX;XvXC.g 2.I ! %.g W.gX",
"<X7X-.T X.H  .! X.5XkXyXg.H X./ ` 5.5 XXaXhXeXg.M { X.@.I u ].iXkXW.s ) [ } %.j x.hXhXkX'.q 3.` { ) N l.iXzX3X` T o.I o.T -.8X5X",
"SXkX<XG W $.{ o.B v.KXXXn *.! T $.+ ~.HX9XkXHXfX<.C ` ) *.^ *.fXdX1./ o.[ ` v 2.pXHXdXeXVX}.+ $.! T @./ ].KXp.U X.{ -.! F *XzXHX",
"Z.K.&X_.) c  .^ G 8.3X|.x ! @.[ z K.oXI.W.C.S.R.*X3.x T  .X.v 7X5Xz  .X.U c 5.>XU.D.n.W.I.&XH.g / -.U V (.qX2.I  .` x ~ |.;XW.x.",
"I 0 $.zXyXq.x / K -.|.t./ U a %._.vXU.. / F R < <XnXv.@.j K H }.oXl K V ) x.KX;X8 / K ! . R.nXW.@.l H A i.*X;.D ! j v.fXfX) u W ",
"-.n g.pXqXpXeXj.o.A !.3.^ q.+XiXzXhXI.H { ` } U ;XdXcX<XD.g.x s.s.n g.Z.5XvXiX;X! [ [ ! U K.nXkX9X>Xl.M t.I.H *.n.3XkX8XsXi.F @."
};
